<svg width="1440" height="1024" viewBox="0 0 1440 1024" fill="none" xmlns="http://www.w3.org/2000/svg">
<path d="M723.24 1024H724.05V509.791L723.24 1024Z" fill="#EDEDED"/>
<path d="M744.297 1024H745.107L724.049 509.791L744.297 1024Z" fill="#EDEDED"/>
<path d="M765.354 1024H766.164L724.049 509.791L765.354 1024Z" fill="#EDEDED"/>
<path d="M786.817 1024H787.627L724.049 509.791L786.817 1024Z" fill="#EDEDED"/>
<path d="M808.684 1024H809.494L724.049 509.791L808.684 1024Z" fill="#EDEDED"/>
<path d="M830.956 1024H831.766L724.049 509.791L830.956 1024Z" fill="#EDEDED"/>
<path d="M853.633 1024H854.443L724.049 509.791L853.633 1024Z" fill="#EDEDED"/>
<path d="M877.12 1024H877.93L724.049 509.791L877.12 1024Z" fill="#EDEDED"/>
<path d="M901.822 1024H902.632L724.049 509.791L901.822 1024Z" fill="#EDEDED"/>
<path d="M927.739 1024H928.549L724.049 509.791L927.739 1024Z" fill="#EDEDED"/>
<path d="M954.871 1024H955.681L724.049 509.791L954.871 1024Z" fill="#EDEDED"/>
<path d="M983.622 1024H984.837L724.049 509.791L983.622 1024Z" fill="#EDEDED"/>
<path d="M1014.4 1024H1015.61L724.049 509.791L1014.4 1024Z" fill="#EDEDED"/>
<path d="M1047.6 1024H1048.82L724.049 509.791L1047.6 1024Z" fill="#EDEDED"/>
<path d="M1084.05 1024H1085.26L724.049 509.791L1084.05 1024Z" fill="#EDEDED"/>
<path d="M1123.73 1024H1125.35L724.049 509.791L1123.73 1024Z" fill="#EDEDED"/>
<path d="M1167.87 1024H1169.49L724.049 509.791L1167.87 1024Z" fill="#EDEDED"/>
<path d="M1217.28 1024H1219.3L724.049 509.791L1217.28 1024Z" fill="#EDEDED"/>
<path d="M1273.97 1024H1276L724.049 509.791L1273.97 1024Z" fill="#EDEDED"/>
<path d="M1338.76 1024H1341.6L724.049 509.791L1338.76 1024Z" fill="#EDEDED"/>
<path d="M1415.3 1024H1418.54L724.049 509.791L1415.3 1024Z" fill="#EDEDED"/>
<path d="M1440 980.367V978.157L724.049 509.791L1440 980.367Z" fill="#EDEDED"/>
<path d="M1440 921.269V919.059L724.049 509.791L1440 921.269Z" fill="#EDEDED"/>
<path d="M1440 864.932V862.723L724.049 509.791L1440 864.932Z" fill="#EDEDED"/>
<path d="M1440 810.805V808.595L724.049 509.791L1440 810.805Z" fill="#EDEDED"/>
<path d="M1440 758.334V756.125L724.049 509.791L1440 758.334Z" fill="#EDEDED"/>
<path d="M1440 707.521V705.312L724.049 509.791L1440 707.521Z" fill="#EDEDED"/>
<path d="M1440 657.812V656.155L724.049 509.791L1440 657.812Z" fill="#EDEDED"/>
<path d="M1440 608.656V606.999L724.049 509.791L1440 608.656Z" fill="#EDEDED"/>
<path d="M1440 560.604V558.947L724.049 509.791L1440 560.604Z" fill="#EDEDED"/>
<path d="M1440 512.552V510.895L724.049 509.791L1440 512.552Z" fill="#EDEDED"/>
<path d="M724.049 509.791L1440 464.501V462.844L724.049 509.791Z" fill="#EDEDED"/>
<path d="M724.049 509.791L1440 415.896V414.24L724.049 509.791Z" fill="#EDEDED"/>
<path d="M724.049 509.791L1440 367.292V365.635L724.049 509.791Z" fill="#EDEDED"/>
<path d="M724.049 509.79L1440 317.583V315.926L724.049 509.79Z" fill="#EDEDED"/>
<path d="M724.049 509.791L1440 266.77V265.113L724.049 509.791Z" fill="#EDEDED"/>
<path d="M724.049 509.791L1440 214.852V212.643L724.049 509.791Z" fill="#EDEDED"/>
<path d="M724.049 509.791L1440 160.725V159.068L724.049 509.791Z" fill="#EDEDED"/>
<path d="M724.049 509.791L1440 104.941V102.731L724.049 509.791Z" fill="#EDEDED"/>
<path d="M724.049 509.791L1440 45.8426V43.6333L724.049 509.791Z" fill="#EDEDED"/>
<path d="M1412.46 0H1409.63L724.049 509.791L1412.46 0Z" fill="#EDEDED"/>
<path d="M1335.93 0H1333.5L724.049 509.791L1335.93 0Z" fill="#EDEDED"/>
<path d="M1270.73 0H1268.71L724.049 509.791L1270.73 0Z" fill="#EDEDED"/>
<path d="M1214.44 0H1212.82L724.049 509.791L1214.44 0Z" fill="#EDEDED"/>
<path d="M1165.04 0H1163.42L724.049 509.791L1165.04 0Z" fill="#EDEDED"/>
<path d="M1121.3 0H1119.69L724.049 509.791L1121.3 0Z" fill="#EDEDED"/>
<path d="M1081.62 0H1080.4L724.049 509.791L1081.62 0Z" fill="#EDEDED"/>
<path d="M1045.98 0H1044.36L724.049 509.791L1045.98 0Z" fill="#EDEDED"/>
<path d="M1012.78 0H1011.56L724.049 509.791L1012.78 0Z" fill="#EDEDED"/>
<path d="M982.407 0H981.192L724.049 509.791L982.407 0Z" fill="#EDEDED"/>
<path d="M953.656 0H952.846L724.049 509.791L953.656 0Z" fill="#EDEDED"/>
<path d="M926.929 0H926.119L724.049 509.791L926.929 0Z" fill="#EDEDED"/>
<path d="M901.417 0H900.607L724.049 509.791L901.417 0Z" fill="#EDEDED"/>
<path d="M877.12 0H876.31L724.049 509.791L877.12 0Z" fill="#EDEDED"/>
<path d="M854.038 0H853.228L724.049 509.791L854.038 0Z" fill="#EDEDED"/>
<path d="M831.361 0H830.551L724.049 509.791L831.361 0Z" fill="#EDEDED"/>
<path d="M809.494 0H808.684L724.049 509.791L809.494 0Z" fill="#EDEDED"/>
<path d="M788.032 0H787.222L724.049 509.791L788.032 0Z" fill="#EDEDED"/>
<path d="M766.974 0H766.164L724.049 509.791L766.974 0Z" fill="#EDEDED"/>
<path d="M746.322 0H745.512L724.049 509.791L746.322 0Z" fill="#EDEDED"/>
<path d="M725.669 0H724.859L724.049 509.791L725.669 0Z" fill="#EDEDED"/>
<path d="M705.017 0H704.207L724.049 509.791L705.017 0Z" fill="#EDEDED"/>
<path d="M684.364 0H683.555L724.05 509.791L684.364 0Z" fill="#EDEDED"/>
<path d="M663.307 0H662.497L724.049 509.791L663.307 0Z" fill="#EDEDED"/>
<path d="M641.845 0H641.035L724.049 509.791L641.845 0Z" fill="#EDEDED"/>
<path d="M619.977 0H619.168L724.049 509.791L619.977 0Z" fill="#EDEDED"/>
<path d="M597.705 0H596.895L724.049 509.791L597.705 0Z" fill="#EDEDED"/>
<path d="M574.623 0H573.813L724.049 509.791L574.623 0Z" fill="#EDEDED"/>
<path d="M550.326 0H549.516L724.049 509.791L550.326 0Z" fill="#EDEDED"/>
<path d="M525.219 0H524.409L724.049 509.791L525.219 0Z" fill="#EDEDED"/>
<path d="M498.493 0H497.683L724.05 509.791L498.493 0Z" fill="#EDEDED"/>
<path d="M470.551 0H469.336L724.049 509.791L470.551 0Z" fill="#EDEDED"/>
<path d="M440.18 0H438.965L724.049 509.791L440.18 0Z" fill="#EDEDED"/>
<path d="M407.379 0H406.164L724.049 509.791L407.379 0Z" fill="#EDEDED"/>
<path d="M372.148 0H370.529L724.049 509.791L372.148 0Z" fill="#EDEDED"/>
<path d="M333.273 0H331.654L724.049 509.791L333.273 0Z" fill="#EDEDED"/>
<path d="M289.944 0H288.324L724.049 509.791L289.944 0Z" fill="#EDEDED"/>
<path d="M241.35 0H239.73L724.049 509.791L241.35 0Z" fill="#EDEDED"/>
<path d="M186.277 0H184.252L724.05 509.791L186.277 0Z" fill="#EDEDED"/>
<path d="M122.7 0H120.27L724.049 509.791L122.7 0Z" fill="#EDEDED"/>
<path d="M48.189 0H45.3543L724.049 509.791L48.189 0Z" fill="#EDEDED"/>
<path d="M0 27.616V29.8252L724.049 509.791L0 27.616Z" fill="#EDEDED"/>
<path d="M0 87.8189V90.0282L724.049 509.791L0 87.8189Z" fill="#EDEDED"/>
<path d="M0 145.26V147.47L724.049 509.791L0 145.26Z" fill="#EDEDED"/>
<path d="M0 200.492V202.701L724.049 509.791L0 200.492Z" fill="#EDEDED"/>
<path d="M0 254.067V256.276L724.049 509.791L0 254.067Z" fill="#EDEDED"/>
<path d="M0 305.985V307.642L724.049 509.791L0 305.985Z" fill="#EDEDED"/>
<path d="M0 356.798V358.455L724.049 509.791L0 356.798Z" fill="#EDEDED"/>
<path d="M0 406.507V408.716L724.049 509.791L0 406.507Z" fill="#EDEDED"/>
<path d="M0 456.216V457.873L724.049 509.791L0 456.216Z" fill="#EDEDED"/>
<path d="M0 504.82V507.029L724.049 509.791L0 504.82Z" fill="#EDEDED"/>
<path d="M724.049 509.791L0 553.976V555.633L724.049 509.791Z" fill="#EDEDED"/>
<path d="M724.049 509.791L0 603.133V604.79L724.049 509.791Z" fill="#EDEDED"/>
<path d="M724.049 509.791L0 652.841V654.498L724.049 509.791Z" fill="#EDEDED"/>
<path d="M724.049 509.791L0 703.655V705.312L724.049 509.791Z" fill="#EDEDED"/>
<path d="M724.049 509.791L0 755.02V757.23L724.049 509.791Z" fill="#EDEDED"/>
<path d="M724.049 509.791L0 808.043V810.252L724.049 509.791Z" fill="#EDEDED"/>
<path d="M724.049 509.791L0 863.275V865.484L724.049 509.791Z" fill="#EDEDED"/>
<path d="M724.049 509.791L0 920.164V922.373L724.049 509.791Z" fill="#EDEDED"/>
<path d="M0 976.5V978.71L724.049 509.791L0 976.5Z" fill="#EDEDED"/>
<path d="M19.8425 1024H23.0821L724.05 509.791L19.8425 1024Z" fill="#EDEDED"/>
<path d="M98.4027 1024H101.237L724.049 509.791L98.4027 1024Z" fill="#EDEDED"/>
<path d="M165.219 1024H167.244L724.049 509.791L165.219 1024Z" fill="#EDEDED"/>
<path d="M222.722 1024H224.747L724.049 509.791L222.722 1024Z" fill="#EDEDED"/>
<path d="M273.341 1024H274.961L724.049 509.791L273.341 1024Z" fill="#EDEDED"/>
<path d="M318.29 1024H319.505L724.05 509.791L318.29 1024Z" fill="#EDEDED"/>
<path d="M358.38 1024H360L724.049 509.791L358.38 1024Z" fill="#EDEDED"/>
<path d="M395.231 1024H396.445L724.049 509.791L395.231 1024Z" fill="#EDEDED"/>
<path d="M428.841 1024H430.056L724.049 509.791L428.841 1024Z" fill="#EDEDED"/>
<path d="M460.022 1024H461.237L724.049 509.791L460.022 1024Z" fill="#EDEDED"/>
<path d="M489.179 1024H490.394L724.049 509.791L489.179 1024Z" fill="#EDEDED"/>
<path d="M516.715 1024H517.525L724.049 509.791L516.715 1024Z" fill="#EDEDED"/>
<path d="M542.632 1024H543.442L724.049 509.791L542.632 1024Z" fill="#EDEDED"/>
<path d="M567.334 1024H568.144L724.049 509.791L567.334 1024Z" fill="#EDEDED"/>
<path d="M591.226 1024H592.036L724.049 509.791L591.226 1024Z" fill="#EDEDED"/>
<path d="M613.903 1024H614.713L724.049 509.791L613.903 1024Z" fill="#EDEDED"/>
<path d="M636.175 1024H636.985L724.049 509.791L636.175 1024Z" fill="#EDEDED"/>
<path d="M658.043 1024H658.853L724.049 509.791L658.043 1024Z" fill="#EDEDED"/>
<path d="M679.505 1024H680.315L724.049 509.791L679.505 1024Z" fill="#EDEDED"/>
<path d="M700.562 1024H701.372L724.05 509.791L700.562 1024Z" fill="#EDEDED"/>
<g opacity="0.25" filter="url(#filter0_f)">
<path d="M235.343 694.521C226.206 706.805 211.878 712.946 192.361 712.946C172.843 712.946 158.223 706.403 148.501 693.315C138.834 680.228 134 661.41 134 636.861V521.596C134 482.206 144.325 457.603 164.976 447.787C173.675 443.932 183.123 442.059 192.635 442.303C229.806 442.303 248.392 465.755 248.392 512.658V549.014H209.466V515.235C209.466 501.599 208.315 491.848 206.012 485.98C205.042 483.225 203.187 480.867 200.738 479.276C198.289 477.684 195.382 476.947 192.47 477.179C189.447 477.016 186.451 477.836 183.932 479.517C181.412 481.197 179.503 483.647 178.49 486.501C175.877 492.716 174.57 502.239 174.57 515.071V638.671C174.57 652.91 175.822 663.082 178.326 669.187C179.43 671.927 181.331 674.273 183.783 675.92C186.235 677.567 189.125 678.439 192.078 678.425C195.032 678.41 197.913 677.508 200.349 675.837C202.784 674.165 204.662 671.801 205.738 669.05C208.242 662.835 209.494 652.563 209.494 638.232V600.341H249.022V637.766C249.022 663.338 244.462 682.256 235.343 694.521Z" fill="#222220"/>
<path d="M364.538 658.686C358.087 667.606 347.761 672.057 333.562 672.039C319.362 672.021 308.946 667.57 302.312 658.686C295.678 649.748 292.361 636.258 292.361 618.217V533.496C292.361 499.534 306.213 482.553 333.918 482.553C348.227 482.553 358.525 486.867 364.812 495.494C371.098 504.122 374.232 516.789 374.214 533.496V618.217C374.214 636.313 370.989 649.803 364.538 658.686ZM323.227 641.221C324.136 643.149 325.578 644.776 327.382 645.91C329.187 647.044 331.278 647.637 333.409 647.62C335.54 647.602 337.621 646.975 339.407 645.812C341.192 644.649 342.607 642.999 343.485 641.057C345.093 636.67 345.897 629.148 345.897 618.491V532.235C346.224 525.741 345.389 519.241 343.43 513.042C342.694 511.118 341.351 509.486 339.605 508.393C337.86 507.3 335.806 506.805 333.754 506.983C331.654 506.838 329.561 507.342 327.757 508.426C325.953 509.509 324.525 511.121 323.666 513.042C321.729 517.082 320.76 523.479 320.76 532.235V618.629C320.76 629.45 321.583 636.999 323.227 641.276V641.221Z" fill="#222220"/>
<path d="M412.098 670.01V484.774H447.131L473.447 620.109L498.118 484.774H533.37V670.01H508.233V600.971L509.275 537.608L484.329 669.215H461.906L435.919 537.608L436.961 600.971V670.01H412.098Z" fill="#222220"/>
<path d="M573.611 670.01V484.774H616.128C630.51 484.774 640.351 489.143 645.651 497.88C650.951 506.617 653.737 519.65 654.012 536.978V540.789C654.012 559.177 651.398 573.124 646.172 582.629C640.945 592.134 631.25 596.886 617.087 596.886H601.819V669.928L573.611 670.01ZM601.819 573.69H611.495C617.453 573.69 621.327 571.396 623.118 566.809C624.909 562.221 625.823 553.465 625.859 540.542V536.95C625.859 525.983 624.891 518.16 622.953 513.481C622.108 511.244 620.555 509.346 618.531 508.073C616.507 506.801 614.123 506.226 611.742 506.434H601.846L601.819 573.69Z" fill="#222220"/>
<path d="M761.66 437.368H292.361V463.169H697.899L673.803 670.01H700.969L704.971 629.568H734.851L739.346 670.01H765.662L740.032 463.169H1152.89V437.368H761.66ZM707.685 601.876L719.061 488.064H719.472L731.89 601.876H707.685Z" fill="#BC1421"/>
<path d="M834.467 582.958L825.421 582.546V670.01H797.214V484.774H843.814C853.5 484.774 860.728 486.721 865.498 490.614C870.438 494.793 873.772 500.56 874.927 506.928C876.614 515.966 877.367 525.153 877.175 534.346C877.175 545.605 875.978 554.178 873.584 560.064C872.446 562.94 870.655 565.512 868.352 567.577C866.05 569.642 863.299 571.144 860.317 571.963C866.695 573.096 871.145 577.41 873.667 584.904C876.188 592.399 877.449 608.027 877.449 631.789C877.449 655.551 877.797 668.346 878.491 670.174H850.366C849.672 668.767 849.324 646.631 849.324 603.768C849.324 595.561 848.347 590.077 846.391 587.317C844.436 584.557 840.461 583.104 834.467 582.958ZM825.531 560.639H836.797C839.657 560.877 842.501 560.014 844.747 558.227C846.778 555.931 848.035 553.052 848.338 550.001C849.136 544.041 849.475 538.028 849.352 532.015V530.864C849.352 520.829 848.511 514.267 846.83 511.177C845.149 508.088 841.256 506.544 835.152 506.544H825.585L825.531 560.639Z" fill="#222220"/>
<path d="M925.284 670.01V509.176H903.601V484.746H974.215V509.176H953.381V669.982L925.284 670.01Z" fill="#222220"/>
<path d="M1003.16 670.01V484.774H1031.37V670.01H1003.16Z" fill="#222220"/>
<path d="M1072.38 670.01V484.774H1113.94C1127.55 484.774 1137.42 488.795 1143.54 496.838C1149.66 504.88 1152.73 516.762 1152.75 532.481V616.051C1152.75 634.714 1149.66 648.423 1143.49 657.178C1137.31 665.934 1127.1 670.284 1112.87 670.229L1072.38 670.01ZM1100.59 648.075H1109.85C1112.01 648.26 1114.18 647.893 1116.16 647.011C1118.14 646.129 1119.86 644.759 1121.17 643.031C1123.51 639.667 1124.69 633.489 1124.71 624.496V533.03C1124.71 523.415 1123.53 516.57 1121.17 512.493C1119.92 510.441 1118.12 508.78 1115.97 507.7C1113.83 506.619 1111.42 506.161 1109.03 506.379H1100.8L1100.59 648.075Z" fill="#222220"/>
<path d="M1174.9 709.931L1212.62 445.32H1265.83L1305.96 709.931H1268.4L1262.1 662.717H1219.39L1213.58 709.931H1174.9ZM1257.88 630.418L1240.14 497.523H1239.54L1223.31 630.418H1257.88Z" fill="#222220"/>
<path d="M830.904 774.692H813.36C813.634 774.006 813.798 773.485 814.073 772.992C815.113 771.064 815.651 768.904 815.635 766.713C815.635 757.939 815.635 749.166 815.635 740.392C815.64 738.167 815.104 735.975 814.073 734.003C813.442 732.797 813.744 732.276 815.114 732.276C823.338 732.276 831.562 732.276 839.785 732.276C842.564 732.14 845.333 732.695 847.844 733.894C849.17 734.628 850.334 735.621 851.268 736.814C852.202 738.008 852.886 739.377 853.28 740.84C853.674 742.303 853.769 743.831 853.561 745.332C853.352 746.833 852.844 748.276 852.066 749.577C851.207 751.02 850.043 752.259 848.656 753.206C847.268 754.153 845.691 754.786 844.034 755.06C844.473 755.362 844.829 755.691 845.24 755.91C848.938 758.487 851.957 761.921 854.04 765.918C855.784 768.846 857.986 771.475 860.564 773.705C860.858 774.007 861.133 774.327 861.386 774.664H859.824C856.425 774.664 853.025 774.664 849.626 774.664C847.969 774.757 846.32 774.382 844.866 773.582C843.412 772.782 842.212 771.589 841.403 770.14C839.402 766.987 837.4 763.862 835.262 760.791C834.663 759.858 833.857 759.075 832.906 758.505C831.955 757.934 830.885 757.59 829.78 757.501C828.765 757.501 828.19 757.501 828.272 758.817C828.491 762.244 828.519 765.671 828.848 769.098C829.148 770.529 829.617 771.919 830.246 773.239C830.383 773.622 830.575 774.006 830.794 774.555L830.904 774.692ZM828.272 744.971C828.272 746.78 828.272 748.562 828.272 750.454C828.272 751.14 828.519 751.441 829.232 751.414C830.657 751.414 831.973 751.414 833.508 751.414C834.756 751.492 835.994 751.151 837.027 750.446C838.06 749.741 838.828 748.711 839.21 747.52C839.467 746.472 839.569 745.391 839.511 744.313C839.54 743.023 839.087 741.768 838.241 740.794C837.394 739.821 836.215 739.198 834.933 739.048C832.974 738.876 831.005 738.831 829.04 738.911C828.793 738.911 828.327 739.514 828.3 739.871C828.3 741.626 828.3 743.38 828.3 745.135" fill="#222220"/>
<path d="M924.188 731.125C929.215 730.719 934.232 732.034 938.415 734.853C941.129 736.466 943.439 738.678 945.168 741.32C946.897 743.962 948 746.964 948.393 750.098C949.101 753.893 948.763 757.809 947.415 761.426C946.068 765.044 943.762 768.227 940.745 770.634C937.841 772.992 934.457 774.685 930.829 775.595C927.202 776.504 923.419 776.608 919.747 775.898C915.454 775.295 911.391 773.585 907.96 770.935C903.653 767.628 900.81 762.767 900.037 757.391C899.128 752.545 899.878 747.534 902.166 743.166C904.453 738.798 908.146 735.329 912.647 733.318C916.219 731.539 920.212 730.78 924.188 731.125ZM935.153 753.607C935.361 750.579 934.884 747.542 933.755 744.724C933.155 742.933 932.068 741.345 930.615 740.139C929.162 738.933 927.401 738.156 925.531 737.897C923.706 737.633 921.843 737.917 920.179 738.713C918.515 739.508 917.124 740.78 916.183 742.366C914.347 745.205 913.393 748.526 913.442 751.907C913.001 756.225 913.85 760.576 915.882 764.41C916.727 765.929 917.967 767.192 919.47 768.065C920.973 768.938 922.685 769.388 924.423 769.369C926.161 769.349 927.862 768.86 929.345 767.953C930.828 767.047 932.039 765.756 932.85 764.218C934.646 760.984 935.456 757.296 935.18 753.607" fill="#222220"/>
<path d="M811.386 774.692H792.005C792.252 773.238 792.636 771.95 792.745 770.387C792.727 768.326 792.129 766.311 791.018 764.574C790.895 764.423 790.741 764.301 790.566 764.216C790.39 764.131 790.199 764.085 790.004 764.081C785.289 764.081 780.602 764.081 775.887 764.081C775.625 764.127 775.378 764.232 775.164 764.389C774.95 764.546 774.776 764.75 774.653 764.986C773.844 766.449 773.372 768.076 773.272 769.746C773.172 771.416 773.448 773.087 774.078 774.637H761.66C761.66 774.637 761.66 774.335 761.66 774.226C763.997 771.694 765.731 768.667 766.731 765.369C769.226 758.981 771.665 752.565 774.132 746.177C775.096 743.955 775.947 741.685 776.682 739.377C777.048 737.759 777.15 736.093 776.983 734.442C776.983 732.797 777.148 732.249 778.82 732.249H790.662C791.077 732.212 791.493 732.321 791.837 732.556C792.182 732.791 792.435 733.137 792.553 733.537C796.446 743.024 800.339 752.51 804.313 761.942C805.529 765.644 807.235 769.167 809.385 772.416L811.249 774.692H811.386ZM782.356 743.298L777.531 757.007H787.592L782.356 743.298Z" fill="#222220"/>
<path d="M645.651 731.783H660.097C660.484 731.719 660.88 731.798 661.213 732.005C661.546 732.211 661.792 732.532 661.906 732.907C664.502 739.304 667.142 745.702 669.829 752.099C672.296 757.994 674.763 763.889 677.34 769.756C678.001 770.967 678.772 772.114 679.642 773.184L680.437 774.253H661.44C661.752 772.747 661.899 771.212 661.879 769.674C661.575 767.875 661.088 766.111 660.426 764.41C660.304 764.23 660.141 764.081 659.951 763.976C659.76 763.871 659.547 763.813 659.33 763.807C654.578 763.807 649.836 763.807 645.103 763.807C644.877 763.844 644.664 763.932 644.478 764.065C644.293 764.198 644.141 764.373 644.034 764.574C643.147 766.009 642.628 767.641 642.523 769.324C642.418 771.008 642.73 772.691 643.431 774.226H631.122C631.227 773.962 631.365 773.713 631.534 773.485C633.479 771.275 634.953 768.691 635.865 765.891C639.182 757.336 642.389 748.782 645.788 740.255C646.461 738.944 646.813 737.492 646.813 736.019C646.813 734.545 646.461 733.093 645.788 731.783H645.651ZM657.274 756.678L651.928 742.969L647.076 756.678H657.274Z" fill="#222220"/>
<path d="M514.154 774.198C514.653 773.327 515.066 772.408 515.388 771.456C516.004 769.374 516.399 767.233 516.566 765.068C516.703 757.72 516.758 750.372 516.566 743.134C516.876 739.295 515.965 735.456 513.962 732.166C514.702 732.166 515.141 732.166 515.552 732.166H547.46C548.529 732.166 548.858 732.413 548.913 733.565C548.913 736.307 549.379 738.802 549.68 741.79C548.803 741.297 548.145 740.885 547.433 740.529C545.351 739.519 543.056 739.03 540.744 739.103C537.674 739.103 534.604 739.103 531.561 739.103C530.492 739.103 530.19 739.46 530.218 740.474C530.218 742.667 530.218 744.834 530.218 747.027C530.218 747.904 530.519 748.179 531.396 748.179C535.015 748.179 538.606 748.179 542.361 748.179H543.759L544.582 757.72C543.869 757.391 543.513 757.226 543.184 757.035C541.276 755.87 539.086 755.254 536.851 755.252C535.042 755.252 533.233 755.252 531.369 755.252C530.629 755.252 530.3 755.444 530.3 756.239C530.3 759.731 530.3 763.213 530.3 766.686C530.3 767.481 530.601 767.7 531.342 767.7C535.755 767.7 540.168 767.865 544.554 767.7C546.458 767.329 548.302 766.702 550.037 765.836C550.453 765.653 550.856 765.442 551.243 765.205C551.243 766.411 551.243 767.481 551.243 768.523C551.243 770.058 550.887 771.593 550.75 773.129C550.612 774.664 550.092 774.719 548.94 774.719H515.251C514.922 774.719 514.62 774.719 514.154 774.719" fill="#222220"/>
<path d="M978.299 762.874C980.245 764.245 981.945 765.616 983.782 766.686C986.529 768.335 989.712 769.11 992.91 768.906C994.201 768.951 995.458 768.488 996.411 767.617C997.364 766.746 997.938 765.535 998.009 764.245C998.015 763.526 997.804 762.822 997.403 762.225C997.002 761.628 996.429 761.166 995.761 760.9C993.732 759.941 991.567 759.255 989.511 758.159C986.948 757.045 984.465 755.753 982.082 754.293C980.637 753.347 979.464 752.04 978.68 750.501C977.896 748.962 977.528 747.244 977.614 745.519C977.483 743.419 977.872 741.319 978.747 739.406C979.622 737.493 980.956 735.825 982.63 734.552C985.481 732.375 988.942 731.147 992.526 731.042C997.184 730.757 1001.85 731.439 1006.23 733.044C1006.61 733.129 1006.95 733.353 1007.18 733.671C1007.41 733.99 1007.51 734.382 1007.47 734.771C1007.47 737.348 1007.47 739.953 1007.47 742.667C1006.01 741.653 1004.72 740.721 1003.38 739.926C1000.31 737.967 996.616 737.215 993.02 737.814C990.443 738.253 988.853 740.2 989.566 742.366C989.944 743.419 990.695 744.296 991.676 744.833C994.144 746.012 996.83 746.807 999.325 747.932C1001.71 748.937 1004 750.167 1006.15 751.606C1007.5 752.616 1008.59 753.923 1009.35 755.426C1010.11 756.928 1010.52 758.586 1010.54 760.27C1010.77 763.787 1009.67 767.263 1007.44 770C1005.22 772.736 1002.05 774.53 998.557 775.021C992.189 776.299 985.586 775.689 979.56 773.266C979.073 773.132 978.649 772.831 978.363 772.414C978.077 771.997 977.947 771.493 977.998 770.99C977.998 768.605 977.998 766.192 977.998 763.807C977.998 763.45 977.998 763.094 977.998 762.628" fill="#222220"/>
<path d="M438.523 767.673C438.523 766.411 438.523 765.15 438.523 763.889C438.58 763.539 438.681 763.198 438.825 762.874C439.165 762.97 439.496 763.099 439.812 763.258C441.703 764.492 443.485 766 445.486 766.932C448.029 768.2 450.888 768.696 453.71 768.358C454.354 768.359 454.991 768.223 455.579 767.959C456.167 767.695 456.692 767.309 457.12 766.827C457.547 766.345 457.867 765.777 458.059 765.162C458.251 764.547 458.31 763.898 458.233 763.258C458.108 762.569 457.8 761.925 457.342 761.395C456.884 760.864 456.293 760.466 455.629 760.242C452.887 759.036 449.899 757.939 447.049 756.733C444.499 755.724 442.212 754.149 440.36 752.127C438.887 750.613 438.053 748.591 438.03 746.478C437.715 743.556 438.278 740.607 439.647 738.006C440.666 736.386 441.998 734.986 443.566 733.889C445.133 732.792 446.905 732.02 448.776 731.618C452.72 730.783 456.789 730.727 460.755 731.453C462.718 731.849 464.658 732.352 466.566 732.961C466.916 733.028 467.226 733.229 467.431 733.52C467.636 733.812 467.719 734.172 467.663 734.524C467.663 736.416 467.663 738.308 467.663 740.2C467.65 740.721 467.445 741.219 467.087 741.598C466.922 741.735 466.182 741.434 465.826 741.159C462.6 738.551 458.507 737.258 454.368 737.54C451.873 737.732 449.817 739.048 449.872 741.488C449.848 742.144 450.02 742.792 450.367 743.349C450.714 743.906 451.219 744.347 451.818 744.614C454.34 745.738 456.944 746.67 459.494 747.685C462.744 748.705 465.692 750.513 468.074 752.949C469.786 754.728 470.765 757.088 470.815 759.557C471.123 762.229 470.716 764.935 469.636 767.398C468.665 769.144 467.346 770.671 465.762 771.888C464.178 773.104 462.362 773.984 460.426 774.472C455.538 775.701 450.431 775.767 445.513 774.664C443.677 774.308 441.922 773.622 440.031 773.129C439.805 773.092 439.589 773.011 439.395 772.891C439.201 772.77 439.033 772.612 438.9 772.426C438.768 772.24 438.673 772.029 438.623 771.806C438.572 771.583 438.566 771.352 438.606 771.127C438.606 770.003 438.606 768.851 438.606 767.727" fill="#222220"/>
<path d="M896.364 732.331C896.556 735.073 896.775 737.513 896.885 740.063C896.91 740.301 896.884 740.541 896.808 740.769C896.733 740.996 896.609 741.204 896.446 741.379C896.172 741.543 895.514 741.379 895.13 741.105C892.751 739.75 890.02 739.139 887.29 739.35C884.303 739.35 884.303 739.35 884.303 742.284C884.303 749.248 884.303 756.212 884.303 763.176C884.047 766.915 884.794 770.654 886.468 774.006C886.564 774.236 886.637 774.475 886.687 774.719H868.486C868.677 774.281 868.815 773.869 869.006 773.485C870.304 771.068 870.964 768.36 870.925 765.616C870.925 757.391 870.925 749.166 870.925 740.94C870.925 740.447 870.925 739.953 870.925 739.35C867.005 739.35 863.222 738.966 859.96 741.297C859.056 741.927 858.37 741.489 858.425 740.282C858.59 737.54 858.836 735.018 859.083 732.331H896.364Z" fill="#222220"/>
<path d="M500.366 774.226H482.465C482.998 773.13 483.465 772.004 483.863 770.853C484.229 769.573 484.468 768.259 484.576 766.932C484.576 765.397 484.576 763.834 484.576 762.271C484.668 754.96 484.768 747.712 484.878 740.529C484.878 738.856 484.878 738.856 483.178 738.884C480.034 738.55 476.867 739.253 474.159 740.885C473.419 741.434 472.789 740.885 472.789 740.09C472.789 737.869 472.789 735.648 473.063 733.428C473.063 732.523 473.693 732.057 474.68 732.057H508.809C509.101 732.038 509.394 732.038 509.686 732.057C509.933 734.634 510.207 737.184 510.371 739.706C510.382 739.927 510.344 740.148 510.258 740.352C510.173 740.556 510.043 740.738 509.878 740.885C509.673 740.941 509.459 740.95 509.25 740.912C509.041 740.874 508.844 740.79 508.672 740.666C505.692 738.987 502.25 738.314 498.858 738.747C498.611 738.747 498.2 739.322 498.173 739.624C498.173 741.132 498.173 742.64 498.173 744.148C498.173 750.811 498.173 757.501 498.173 764.163C497.983 767.099 498.55 770.035 499.817 772.69C500.008 773.134 500.164 773.593 500.283 774.061" fill="#222220"/>
<path d="M590.717 764.218L589.867 774.198H555.053C555.355 773.458 555.574 772.827 555.848 772.279C556.719 770.505 557.161 768.552 557.136 766.576C557.136 757.885 557.136 749.193 557.136 740.501C557.218 737.978 556.622 735.478 555.409 733.263C555.24 732.907 555.094 732.541 554.971 732.166C555.437 732.166 555.848 732.166 556.232 732.166H571.583C573.09 732.166 573.227 732.166 572.597 733.62C571.353 736.469 570.763 739.56 570.87 742.668C570.87 750.317 570.87 757.939 570.87 765.589C570.87 767.453 570.87 767.453 572.761 767.453C575.996 767.453 579.231 767.453 582.465 767.453C584.691 767.362 586.85 766.67 588.715 765.452L590.662 764.3" fill="#222220"/>
<path d="M612.784 732.249C611.281 734.735 610.45 737.57 610.371 740.474C610.371 741.05 610.371 741.653 610.371 742.229C610.371 750.207 610.371 758.186 610.371 766.165C610.371 767.152 610.673 767.481 611.66 767.453C615.141 767.453 618.622 767.453 622.104 767.453C624.249 767.362 626.331 766.699 628.134 765.534L629.916 764.465C629.982 767.755 629.798 771.045 629.368 774.308H594.39C594.927 773.171 595.385 771.998 595.761 770.798C596.281 769.011 596.603 767.172 596.72 765.315C596.72 757.72 596.72 750.125 596.72 742.503C596.825 739.429 596.196 736.374 594.883 733.592C594.472 732.797 594.472 732.194 595.623 732.194H611.879C612.175 732.23 612.468 732.285 612.756 732.358" fill="#222220"/>
<path d="M971.309 732.249C970.624 734.47 969.966 736.498 969.418 738.527C969.255 739.432 969.209 740.353 969.281 741.269C969.281 749.495 969.281 757.72 969.281 765.945C969.256 767.447 969.403 768.946 969.719 770.415C970.166 771.851 970.716 773.252 971.364 774.609C971.054 774.63 970.742 774.63 970.432 774.609H954.56C953.272 774.609 953.135 774.445 953.765 773.348C955.279 770.203 955.922 766.709 955.629 763.231C955.629 755.92 955.629 748.608 955.629 741.297C955.639 739.033 955.211 736.79 954.368 734.689C953.738 733.154 954.368 732.221 956.178 732.221H971.309" fill="#222220"/>
<path d="M721.364 703.953L717.526 743.956L703.436 734.853L712.619 749.056L688.88 752.867L712.619 756.678L703.436 770.908L717.526 761.805L721.364 802L725.201 761.75L739.291 770.853L730.108 756.651L753.82 752.84L730.108 749.029L739.291 734.799L725.201 743.901L721.364 703.953Z" fill="#BC1421"/>
<path d="M500.859 409.95V224.193H536.002L562.372 359.912L587.043 224.193H622.405V409.95H597.186V340.638L598.227 277.11L573.392 409.183H550.914L524.845 277.247L525.886 340.775V410.005L500.859 409.95Z" fill="#030608"/>
<path d="M661.331 409.95V224.193H723.584V248.568H689.593V302.609H721.885V326.463H689.62V385.576H724.872V409.95H661.331Z" fill="#030608"/>
<path d="M754.56 357.692V341.241H781.369V359.83C781.369 370.176 782.283 377.442 784.11 381.628C784.867 383.604 786.241 385.284 788.03 386.415C789.818 387.547 791.924 388.07 794.034 387.906C798.877 387.906 802.093 386.179 803.683 382.724C805.584 377.307 806.395 371.567 806.068 365.835C806.23 358.794 804.786 351.808 801.846 345.408C798.357 338.676 793.834 332.533 788.442 327.203L774.735 313.055C768.728 306.928 763.69 299.92 759.796 292.272C756.117 284.498 754.297 275.975 754.478 267.377C754.478 252.041 757.429 240.644 763.332 233.187C769.235 225.729 779.395 222 793.814 222C808.233 222 817.992 226.341 823.091 235.024C828.189 243.706 830.739 256.391 830.739 273.08V284.595H804.67V271.27C804.999 264.732 804.211 258.186 802.34 251.913C801.706 250.092 800.49 248.53 798.879 247.469C797.269 246.409 795.354 245.908 793.431 246.046C791.599 245.891 789.759 246.22 788.095 246.999C786.431 247.779 785 248.981 783.946 250.487C781.742 254.557 780.734 259.167 781.04 263.785C780.815 268.675 781.834 273.543 784.001 277.933C787.036 282.825 790.613 287.36 794.664 291.45L809.96 307.901C817.037 315.342 822.893 323.855 827.312 333.125C831.269 341.874 833.271 351.38 833.178 360.982C833.178 378.365 830.254 391.16 824.407 399.367C818.559 407.574 808.306 411.76 793.65 411.924C779.03 411.924 768.869 407.3 763.167 398.051C757.466 388.802 754.596 375.349 754.56 357.692Z" fill="#030608"/>
<path d="M856.123 409.95L882.603 224.193H919.966L948.146 409.95H921.775L917.335 376.802H887.373L883.371 409.95H856.123ZM914.374 354.127L901.929 260.906H901.518L890.114 354.127H914.374Z" fill="#030608"/>
</g>
<defs>
<filter id="filter0_f" x="119" y="207" width="1201.96" height="610" filterUnits="userSpaceOnUse" color-interpolation-filters="sRGB">
<feFlood flood-opacity="0" result="BackgroundImageFix"/>
<feBlend mode="normal" in="SourceGraphic" in2="BackgroundImageFix" result="shape"/>
<feGaussianBlur stdDeviation="7.5" result="effect1_foregroundBlur"/>
</filter>
</defs>
</svg>
