<svg width="253" height="125" viewBox="0 0 253 125" fill="none" xmlns="http://www.w3.org/2000/svg">
<path d="M21.847 101.854C19.8984 104.511 16.769 105.81 12.5768 105.81C8.38451 105.81 5.19603 104.393 3.12943 101.559C1.06282 98.7246 0 94.7095 0 89.3954V64.5371C0 56.0345 2.24374 50.7794 6.67218 48.6537C8.32546 47.8862 10.274 47.4728 12.6358 47.4728C20.666 47.4728 24.6221 52.5508 24.6221 62.6476V70.5007H16.2376V63.2381C16.2376 60.2858 16.0014 58.2192 15.47 56.9202C14.9976 55.6802 13.9939 55.0307 12.5768 55.0307C11.1006 55.0307 10.1559 55.6802 9.56542 57.0383C8.97496 58.3963 8.73878 60.4039 8.73878 63.179V89.8087C8.73878 92.8791 9.03401 95.0638 9.56542 96.3628C10.0968 97.6618 11.1006 98.3113 12.5177 98.3113C13.9348 98.3113 14.9386 97.6618 15.47 96.3037C16.0014 94.9457 16.2966 92.761 16.2966 89.6906V81.5423H24.7992V89.6315C24.7402 95.1228 23.7955 99.197 21.847 101.854Z" fill="black"/>
<path d="M49.6575 94.119C48.2404 96.0675 46.0557 97.0123 42.9854 97.0123C39.915 97.0123 37.6712 96.0675 36.2541 94.119C34.837 92.1705 34.1285 89.2773 34.1285 85.3803V67.1351C34.1285 59.8134 37.1398 56.1526 43.1034 56.1526C46.1738 56.1526 48.4176 57.0973 49.7756 58.9277C51.1337 60.7581 51.7832 63.5333 51.7832 67.1351V85.3803C51.7241 89.2773 51.0156 92.1705 49.6575 94.119ZM40.7416 90.3401C41.0959 91.2848 41.8044 91.6982 42.9263 91.6982C44.0482 91.6982 44.7567 91.2258 45.111 90.2811C45.4653 89.3363 45.6424 87.7421 45.6424 85.4393V66.8399C45.6424 64.9504 45.4653 63.5923 45.111 62.7067C44.7567 61.821 44.0482 61.4077 43.0444 61.4077C41.9816 61.4077 41.273 61.821 40.8597 62.7067C40.4464 63.5923 40.2102 64.9504 40.2102 66.8399V85.4393C40.2102 87.8011 40.3873 89.4544 40.7416 90.3401Z" fill="black"/>
<path d="M59.8725 96.5399V56.6249H67.4303L73.0987 85.7936L78.4129 56.6249H86.0298V96.5399H80.5975V81.6604L80.8337 68.0208L75.4606 96.3628H70.6188L65.0095 68.0208L65.2456 81.6604V96.5399H59.8725Z" fill="black"/>
<path d="M94.7095 96.5399V56.6249H103.862C106.932 56.6249 109.058 57.5697 110.239 59.4591C111.36 61.3486 111.951 64.1238 112.069 67.9027V68.7293C112.069 72.6854 111.478 75.6967 110.357 77.7633C109.235 79.8299 107.168 80.8337 104.098 80.8337H100.791V96.5399H94.7095ZM100.732 75.8148H102.799C104.098 75.8148 104.924 75.3425 105.279 74.3387C105.692 73.3349 105.869 71.4454 105.869 68.6703V67.9027C105.869 65.5409 105.633 63.8876 105.22 62.8247C104.806 61.821 104.039 61.2896 102.799 61.2896H100.673V75.8148H100.732Z" fill="black"/>
<path d="M135.215 46.4691H124.469H34.1285V52.0194H121.457L116.261 96.5399H122.107L122.992 87.8602H129.428L130.373 96.5399H136.042L130.491 52.0194H141.119H219.473V46.4691H135.215ZM123.583 81.8965L126.004 57.3925H126.122L128.779 81.8965H123.583Z" fill="#BA041E"/>
<path d="M150.862 77.8224L148.914 77.7043V96.5399H142.832V56.6249H152.87C154.936 56.6249 156.53 57.0383 157.534 57.8649C158.538 58.6915 159.247 59.8725 159.542 61.3486C159.837 62.8247 160.014 64.8323 160.014 67.2532C160.014 69.6741 159.778 71.5045 159.247 72.8035C158.715 74.0435 157.77 74.9291 156.412 75.3425C157.77 75.5786 158.774 76.5234 159.306 78.1176C159.837 79.7118 160.132 83.0775 160.132 88.2145C160.132 93.3514 160.191 96.0675 160.368 96.4809H154.287C154.11 96.1856 154.051 91.4029 154.051 82.1918C154.051 80.4204 153.814 79.2395 153.401 78.649C152.988 78.1176 152.161 77.8224 150.862 77.8224ZM148.973 72.9806H151.393C152.161 72.9806 152.752 72.8035 153.106 72.4492C153.46 72.0949 153.755 71.5045 153.873 70.6778C153.992 69.8512 154.11 68.5522 154.11 66.7808V66.5446C154.11 64.3599 153.932 62.9428 153.578 62.2933C153.224 61.6438 152.397 61.2896 151.039 61.2896H148.973V72.9806Z" fill="black"/>
<path d="M170.406 96.5399V61.88H165.742V56.6249H180.975V61.88H176.488V96.5399H170.406Z" fill="black"/>
<path d="M187.234 96.5399V56.6249H193.316V96.5399H187.234Z" fill="black"/>
<path d="M202.114 96.5399V56.6249H211.089C214.041 56.6249 216.167 57.5106 217.466 59.223C218.765 60.9353 219.473 63.4742 219.473 66.8989V84.9079C219.473 88.923 218.824 91.8753 217.466 93.7648C216.108 95.6542 213.923 96.599 210.853 96.599H202.114V96.5399ZM208.196 91.8162H210.203C211.325 91.8162 212.152 91.462 212.624 90.7534C213.155 90.0449 213.392 88.6868 213.392 86.7383V67.017C213.392 64.9504 213.155 63.4743 212.624 62.5886C212.093 61.7029 211.266 61.2896 210.026 61.2896H208.255V91.8162H208.196Z" fill="black"/>
<path d="M224.197 105.161L232.345 48.1814H243.8L252.421 105.161H244.332L242.974 95.0047H233.762L232.522 105.161H224.197ZM242.088 88.0373L238.25 59.4001H238.132L234.648 88.0373H242.088Z" fill="black"/>
<path d="M150.094 119.095H146.316C146.375 118.977 146.434 118.859 146.493 118.741C146.729 118.328 146.847 117.855 146.847 117.383C146.847 115.494 146.847 113.604 146.847 111.715C146.847 111.242 146.729 110.77 146.493 110.357C146.375 110.12 146.434 110.002 146.729 110.002C148.5 110.002 150.272 110.002 152.043 110.002C152.633 110.002 153.224 110.061 153.755 110.357C154.936 111.006 155.35 112.482 154.641 113.722C154.287 114.431 153.637 114.726 152.929 114.903C153.047 114.962 153.106 115.021 153.165 115.08C154.051 115.612 154.523 116.438 155.054 117.265C155.468 117.914 155.881 118.446 156.471 118.918C156.53 118.977 156.59 119.036 156.649 119.095C156.471 119.095 156.412 119.095 156.294 119.095C155.586 119.095 154.818 119.095 154.11 119.095C153.342 119.095 152.752 118.741 152.338 118.151C151.925 117.501 151.453 116.793 151.039 116.143C150.744 115.73 150.39 115.494 149.858 115.435C149.622 115.435 149.504 115.435 149.563 115.73C149.622 116.438 149.622 117.206 149.681 117.914C149.74 118.21 149.858 118.505 149.976 118.8C150.035 118.918 150.035 118.977 150.094 119.095ZM149.563 112.718C149.563 113.132 149.563 113.486 149.563 113.899C149.563 114.077 149.622 114.136 149.74 114.077C150.035 114.077 150.331 114.077 150.685 114.077C151.275 114.077 151.748 113.84 151.925 113.25C151.984 113.014 151.984 112.778 151.984 112.541C151.984 111.951 151.571 111.479 150.98 111.419C150.567 111.36 150.154 111.36 149.74 111.36C149.681 111.36 149.563 111.478 149.563 111.538C149.563 111.951 149.563 112.364 149.563 112.718Z" fill="black"/>
<path d="M170.17 109.707C171.292 109.589 172.296 109.943 173.24 110.534C174.421 111.301 175.189 112.364 175.366 113.84C175.602 115.612 175.13 117.147 173.713 118.269C172.414 119.332 170.879 119.686 169.166 119.391C168.222 119.273 167.395 118.918 166.627 118.328C165.683 117.56 165.092 116.615 164.915 115.435C164.561 113.191 165.624 111.242 167.631 110.239C168.517 109.825 169.343 109.648 170.17 109.707ZM172.532 114.549C172.532 113.899 172.473 113.25 172.237 112.659C171.882 111.892 171.351 111.301 170.465 111.183C169.58 111.065 168.93 111.419 168.458 112.128C168.044 112.718 167.867 113.427 167.867 114.195C167.867 115.139 167.867 116.084 168.399 116.911C168.812 117.619 169.462 117.974 170.288 117.974C171.056 117.974 171.646 117.56 172.06 116.852C172.473 116.143 172.591 115.376 172.532 114.549Z" fill="black"/>
<path d="M145.902 119.095H141.71C141.769 118.8 141.828 118.505 141.887 118.151C141.946 117.678 141.71 117.265 141.533 116.911C141.474 116.852 141.415 116.793 141.297 116.793C140.293 116.793 139.289 116.793 138.285 116.793C138.167 116.793 138.049 116.911 138.049 116.97C137.754 117.619 137.577 118.328 137.931 119.036H135.215V118.977C135.746 118.446 136.042 117.737 136.337 117.088C136.868 115.73 137.4 114.313 137.931 112.955C138.108 112.482 138.344 112.01 138.462 111.478C138.581 111.124 138.581 110.77 138.521 110.416C138.521 110.061 138.581 109.943 138.935 109.943C139.761 109.943 140.647 109.943 141.474 109.943C141.71 109.943 141.828 110.002 141.887 110.239C142.714 112.305 143.54 114.313 144.426 116.379C144.721 117.147 145.017 117.974 145.489 118.623C145.607 118.741 145.725 118.918 145.902 119.095ZM139.702 112.305C139.348 113.25 138.994 114.254 138.64 115.257H140.824C140.411 114.254 140.057 113.309 139.702 112.305Z" fill="black"/>
<path d="M110.179 109.825C110.475 109.825 110.711 109.825 110.947 109.825C111.715 109.825 112.541 109.825 113.309 109.825C113.486 109.825 113.604 109.884 113.722 110.061C114.254 111.419 114.844 112.837 115.435 114.195C115.966 115.494 116.497 116.734 117.029 117.974C117.147 118.269 117.383 118.446 117.501 118.741C117.56 118.8 117.619 118.859 117.678 118.977H113.604C113.663 118.623 113.722 118.328 113.722 117.974C113.663 117.56 113.545 117.206 113.427 116.852C113.427 116.793 113.25 116.734 113.191 116.734C112.187 116.734 111.124 116.734 110.12 116.734C110.061 116.734 109.943 116.793 109.884 116.911C109.589 117.56 109.353 118.269 109.766 118.977H107.109C107.168 118.918 107.168 118.859 107.168 118.8C107.641 118.328 107.877 117.737 108.113 117.147C108.821 115.316 109.53 113.486 110.239 111.656C110.475 111.065 110.534 110.475 110.179 109.825ZM112.659 115.198C112.246 114.195 111.892 113.25 111.538 112.246C111.183 113.191 110.829 114.195 110.475 115.198H112.659Z" fill="black"/>
<path d="M81.8965 118.977C82.0146 118.741 82.1327 118.564 82.1327 118.387C82.2508 117.914 82.3689 117.501 82.3689 117.029C82.4279 115.435 82.4279 113.84 82.3689 112.305C82.3689 111.538 82.3099 110.711 81.8375 109.943C82.0146 109.943 82.0737 109.943 82.1918 109.943C84.4946 109.943 86.7383 109.943 89.0411 109.943C89.2773 109.943 89.3363 110.002 89.3363 110.239C89.3363 110.829 89.4544 111.36 89.5134 112.01C89.3363 111.892 89.1592 111.833 89.0411 111.715C88.5687 111.479 88.0963 111.419 87.624 111.419C86.9745 111.419 86.325 111.419 85.6164 111.419C85.3802 111.419 85.3212 111.479 85.3212 111.715C85.3212 112.187 85.3212 112.659 85.3212 113.132C85.3212 113.309 85.3802 113.368 85.5574 113.368C86.325 113.368 87.0926 113.368 87.9192 113.368C88.0373 113.368 88.0963 113.368 88.2144 113.368C88.2735 114.017 88.3325 114.667 88.3916 115.435C88.2144 115.376 88.1554 115.316 88.0963 115.316C87.683 115.08 87.2107 114.903 86.7383 114.962C86.325 114.962 85.9707 114.962 85.5574 114.962C85.3802 114.962 85.3212 115.021 85.3212 115.198C85.3212 115.966 85.3212 116.675 85.3212 117.442C85.3212 117.619 85.3802 117.678 85.5574 117.678C86.5021 117.678 87.4468 117.737 88.3916 117.678C88.8049 117.678 89.1592 117.442 89.5725 117.265C89.6315 117.265 89.7496 117.206 89.8087 117.147C89.8087 117.383 89.8087 117.619 89.8087 117.855C89.8087 118.21 89.7496 118.505 89.6906 118.859C89.6906 119.095 89.5725 119.214 89.2773 119.214C86.8564 119.214 84.4946 119.214 82.0737 119.214C82.0737 118.977 81.9556 118.977 81.8965 118.977Z" fill="black"/>
<path d="M181.861 116.556C182.274 116.852 182.629 117.147 183.042 117.383C183.633 117.737 184.282 117.914 184.991 117.855C185.64 117.796 186.112 117.383 186.112 116.852C186.112 116.497 185.935 116.261 185.64 116.143C185.227 115.907 184.754 115.789 184.282 115.553C183.751 115.316 183.16 115.021 182.688 114.726C182.038 114.313 181.743 113.663 181.743 112.837C181.743 111.892 182.038 111.065 182.806 110.475C183.455 110.002 184.164 109.766 184.932 109.707C185.935 109.648 186.939 109.766 187.884 110.12C188.061 110.179 188.179 110.298 188.179 110.475C188.179 111.006 188.179 111.597 188.179 112.187C187.884 111.951 187.589 111.774 187.293 111.597C186.585 111.183 185.876 111.006 185.05 111.124C184.518 111.242 184.164 111.656 184.282 112.128C184.341 112.364 184.518 112.541 184.754 112.659C185.286 112.896 185.876 113.073 186.408 113.309C186.939 113.545 187.411 113.781 187.884 114.077C188.474 114.49 188.769 115.198 188.829 115.966C188.947 117.678 187.707 118.859 186.231 119.154C184.813 119.45 183.455 119.273 182.156 118.8C181.92 118.741 181.802 118.564 181.802 118.328C181.802 117.796 181.802 117.324 181.802 116.793C181.802 116.734 181.861 116.615 181.861 116.556Z" fill="black"/>
<path d="M65.5999 117.56C65.5999 117.265 65.5999 117.029 65.5999 116.734C65.5999 116.675 65.659 116.615 65.659 116.497C65.718 116.497 65.8361 116.556 65.8951 116.556C66.3085 116.793 66.6627 117.147 67.1351 117.324C67.6665 117.619 68.257 117.678 68.9065 117.619C69.556 117.56 69.9693 117.088 69.8512 116.497C69.7922 116.143 69.556 115.966 69.3198 115.848C68.7293 115.612 68.0798 115.376 67.4894 115.08C66.958 114.844 66.4266 114.549 66.0723 114.077C65.777 113.722 65.5999 113.368 65.5409 112.837C65.5409 112.187 65.5409 111.597 65.8951 111.006C66.3675 110.239 67.017 109.825 67.8437 109.648C68.6703 109.412 69.556 109.471 70.4417 109.589C70.855 109.648 71.2683 109.825 71.6816 109.884C71.8588 109.943 71.9178 110.061 71.9178 110.239C71.9178 110.652 71.9178 111.065 71.9178 111.478C71.9178 111.597 71.8588 111.715 71.7997 111.774C71.7407 111.833 71.6226 111.715 71.5045 111.656C70.7959 111.124 69.9693 110.829 69.0246 110.888C68.4932 110.947 68.0208 111.183 68.0798 111.715C68.0798 112.01 68.1979 112.246 68.4932 112.364C69.0246 112.6 69.615 112.777 70.1464 113.014C70.855 113.309 71.5045 113.545 71.9769 114.136C72.3311 114.549 72.5673 115.021 72.5673 115.553C72.5673 116.143 72.6264 116.734 72.3311 117.265C71.8588 118.033 71.2093 118.564 70.3236 118.8C69.2607 119.095 68.1979 119.036 67.1351 118.859C66.7218 118.8 66.3675 118.623 65.9542 118.505C65.718 118.446 65.659 118.328 65.659 118.092C65.5999 118.092 65.5999 117.796 65.5999 117.56Z" fill="black"/>
<path d="M164.206 109.943C164.265 110.534 164.265 111.065 164.324 111.597C164.324 111.715 164.324 111.833 164.206 111.892C164.147 111.951 164.029 111.892 163.911 111.833C163.38 111.479 162.789 111.478 162.199 111.478C161.549 111.478 161.549 111.479 161.549 112.128C161.549 113.604 161.549 115.139 161.549 116.615C161.549 117.442 161.608 118.21 162.022 118.918C162.022 118.977 162.022 118.977 162.081 119.095H158.184C158.243 118.977 158.243 118.918 158.302 118.859C158.597 118.328 158.715 117.796 158.715 117.147C158.715 115.376 158.715 113.604 158.715 111.833C158.715 111.715 158.715 111.597 158.715 111.478C157.888 111.478 157.062 111.419 156.353 111.892C156.176 112.01 155.999 111.951 155.999 111.656C156.058 111.065 156.117 110.534 156.117 109.943H164.206Z" fill="black"/>
<path d="M78.8852 118.977H75.0472C75.1653 118.741 75.2834 118.505 75.3425 118.269C75.4015 117.974 75.4605 117.678 75.5196 117.442C75.5196 117.088 75.5196 116.793 75.5196 116.438C75.5196 114.903 75.5786 113.309 75.5786 111.774C75.5786 111.419 75.5786 111.419 75.2244 111.419C74.5749 111.419 73.8663 111.419 73.2759 111.833C73.0987 111.951 72.9806 111.833 72.9806 111.656C72.9806 111.183 72.9806 110.711 73.0397 110.239C73.0397 110.061 73.1578 109.943 73.3939 109.943C75.8148 109.943 78.2947 109.943 80.7156 109.943C80.7747 109.943 80.8337 109.943 80.8928 109.943C80.9518 110.475 81.0109 111.065 81.0699 111.597C81.0699 111.656 81.0109 111.833 80.9518 111.833C80.8928 111.892 80.7747 111.833 80.7156 111.774C80.0661 111.301 79.3576 111.36 78.59 111.36C78.5309 111.36 78.4719 111.479 78.4719 111.538C78.4719 111.833 78.4719 112.187 78.4719 112.541C78.4719 113.958 78.4719 115.435 78.4719 116.852C78.4719 117.501 78.5309 118.092 78.8262 118.682C78.8262 118.741 78.8852 118.859 78.8852 118.977Z" fill="black"/>
<path d="M98.3703 116.852C98.3113 117.619 98.2522 118.328 98.1932 118.977H90.6944C90.7534 118.8 90.8125 118.682 90.8715 118.564C91.0486 118.151 91.1667 117.796 91.1667 117.324C91.1667 115.435 91.1667 113.604 91.1667 111.715C91.1667 111.183 91.0486 110.652 90.8125 110.179C90.7534 110.12 90.7534 110.061 90.6944 109.943C90.8125 109.943 90.8715 109.943 90.9896 109.943C92.1115 109.943 93.1743 109.943 94.2962 109.943C94.6504 109.943 94.6504 109.943 94.5323 110.239C94.2371 110.829 94.1781 111.538 94.1781 112.187C94.1781 113.84 94.1781 115.494 94.1781 117.147C94.1781 117.56 94.1781 117.56 94.5914 117.56C95.2999 117.56 96.0085 117.56 96.658 117.56C97.1304 117.56 97.6027 117.383 98.016 117.147C98.0751 117.029 98.1932 116.97 98.3703 116.852Z" fill="black"/>
<path d="M103.094 109.943C102.74 110.534 102.622 111.124 102.563 111.715C102.563 111.833 102.563 111.951 102.563 112.069C102.563 113.781 102.563 115.494 102.563 117.206C102.563 117.442 102.622 117.501 102.858 117.501C103.625 117.501 104.334 117.501 105.102 117.501C105.574 117.501 105.987 117.324 106.401 117.088C106.519 117.029 106.637 116.97 106.755 116.852C106.873 117.56 106.637 118.269 106.637 118.977H99.1379C99.256 118.741 99.3741 118.505 99.4332 118.21C99.5513 117.796 99.6103 117.442 99.6103 117.029C99.6103 115.376 99.6103 113.781 99.6103 112.128C99.6103 111.479 99.4922 110.829 99.197 110.239C99.1379 110.061 99.0789 109.943 99.3741 109.943C100.555 109.943 101.736 109.943 102.858 109.943C102.976 109.943 103.035 109.943 103.094 109.943Z" fill="black"/>
<path d="M180.326 109.943C180.208 110.416 180.031 110.829 179.913 111.301C179.854 111.479 179.854 111.656 179.854 111.892C179.854 113.663 179.854 115.435 179.854 117.206C179.854 117.501 179.854 117.855 179.972 118.151C180.031 118.446 180.208 118.741 180.326 119.036C180.267 119.036 180.208 119.036 180.149 119.036C179.027 119.036 177.846 119.036 176.724 119.036C176.429 119.036 176.429 118.977 176.547 118.741C176.96 118.033 176.96 117.324 176.96 116.556C176.96 114.962 176.96 113.368 176.96 111.833C176.96 111.36 176.901 110.888 176.665 110.416C176.547 110.061 176.665 109.884 177.078 109.884C177.964 109.884 178.85 109.884 179.735 109.884C179.972 109.943 180.149 109.943 180.326 109.943Z" fill="black"/>
<path d="M126.535 103.862L125.709 112.482L122.638 110.534L124.646 113.545L119.509 114.372L124.646 115.198L122.638 118.269L125.709 116.32L126.535 125L127.362 116.32L130.373 118.269L128.366 115.198L133.503 114.372L128.366 113.545L130.373 110.475L127.362 112.482L126.535 103.862Z" fill="#BA041E"/>
<path d="M79.0033 40.5645V0.531414H86.5612L92.2296 29.7591L97.5437 0.531414H105.161V40.5054H99.7874V25.6259L100.024 11.9273L94.6504 40.3283H89.8087L84.1993 11.9273L84.4355 25.6259V40.5645H79.0033Z" fill="black"/>
<path d="M113.604 40.5645V0.531414H127.008V5.78649H119.686V17.4185H126.653V22.5555H119.686V35.3094H127.303V40.5645H113.604Z" fill="black"/>
<path d="M133.68 29.2867V25.744H139.466V29.7591C139.466 32.0028 139.643 33.538 140.057 34.4237C140.411 35.3094 141.119 35.7818 142.182 35.7818C143.245 35.7818 143.895 35.4275 144.249 34.6599C144.603 33.8923 144.78 32.7114 144.78 30.9991C144.78 29.3458 144.485 27.8696 143.895 26.6297C143.304 25.3897 142.3 24.0907 141.001 22.7326L138.049 19.6623C136.691 18.2452 135.569 16.71 134.861 15.1748C134.093 13.6396 133.739 11.8682 133.739 9.80161C133.739 6.49504 134.388 4.01512 135.628 2.42088C136.927 0.826641 139.112 0 142.182 0C145.312 0 147.378 0.944733 148.5 2.8342C149.622 4.72367 150.153 7.43977 150.153 11.0416V13.5215H144.544V10.6873C144.544 8.73878 144.367 7.38073 144.072 6.49504C143.717 5.6684 143.068 5.25508 142.123 5.25508C141.179 5.25508 140.47 5.55031 140.057 6.19981C139.643 6.84931 139.407 7.79405 139.407 9.09306C139.407 10.3921 139.643 11.3958 140.057 12.1634C140.47 12.931 141.238 13.8758 142.359 15.0567L145.666 18.5994C147.319 20.3708 148.559 22.2012 149.386 24.0316C150.213 25.8621 150.626 27.8696 150.626 30.0543C150.626 33.7742 149.976 36.5494 148.736 38.3207C147.496 40.0921 145.253 40.9778 142.123 40.9778C138.994 40.9778 136.809 39.974 135.569 37.9665C134.27 36.0179 133.68 33.1247 133.68 29.2867Z" fill="black"/>
<path d="M155.527 40.5645L161.254 0.590458H169.284L175.366 40.5645H169.698L168.753 33.4199H162.317L161.431 40.5645H155.527ZM168.103 28.5191L165.446 8.44355H165.328L162.848 28.5191H168.103Z" fill="black"/>
</svg>
