<svg width="375" height="667" viewBox="0 0 375 667" fill="none" xmlns="http://www.w3.org/2000/svg">
<path d="M191.24 845H192.05V330.791L191.24 845Z" fill="#EDEDED"/>
<path d="M212.297 845H213.107L192.05 330.791L212.297 845Z" fill="#EDEDED"/>
<path d="M233.354 845H234.164L192.05 330.791L233.354 845Z" fill="#EDEDED"/>
<path d="M254.817 845H255.627L192.05 330.791L254.817 845Z" fill="#EDEDED"/>
<path d="M276.684 845H277.494L192.05 330.791L276.684 845Z" fill="#EDEDED"/>
<path d="M298.956 845H299.766L192.05 330.791L298.956 845Z" fill="#EDEDED"/>
<path d="M321.633 845H322.443L192.05 330.791L321.633 845Z" fill="#EDEDED"/>
<path d="M345.12 845H345.93L192.05 330.791L345.12 845Z" fill="#EDEDED"/>
<path d="M369.822 845H370.632L192.05 330.791L369.822 845Z" fill="#EDEDED"/>
<path d="M395.739 845H396.549L192.05 330.791L395.739 845Z" fill="#EDEDED"/>
<path d="M422.871 845H423.681L192.05 330.791L422.871 845Z" fill="#EDEDED"/>
<path d="M451.622 845H452.837L192.05 330.791L451.622 845Z" fill="#EDEDED"/>
<path d="M482.398 845H483.613L192.05 330.791L482.398 845Z" fill="#EDEDED"/>
<path d="M515.604 845H516.819L192.05 330.791L515.604 845Z" fill="#EDEDED"/>
<path d="M552.05 845H553.264L192.05 330.791L552.05 845Z" fill="#EDEDED"/>
<path d="M591.735 845H593.354L192.05 330.791L591.735 845Z" fill="#EDEDED"/>
<path d="M635.874 845H637.494L192.05 330.791L635.874 845Z" fill="#EDEDED"/>
<path d="M685.278 845H687.303L192.05 330.791L685.278 845Z" fill="#EDEDED"/>
<path d="M741.971 845H743.996L192.05 330.791L741.971 845Z" fill="#EDEDED"/>
<path d="M806.763 845H809.597L192.05 330.791L806.763 845Z" fill="#EDEDED"/>
<path d="M883.298 845H886.538L192.05 330.791L883.298 845Z" fill="#EDEDED"/>
<path d="M908 801.367V799.158L192.05 330.791L908 801.367Z" fill="#EDEDED"/>
<path d="M908 742.269V740.059L192.05 330.791L908 742.269Z" fill="#EDEDED"/>
<path d="M908 685.932V683.723L192.05 330.791L908 685.932Z" fill="#EDEDED"/>
<path d="M908 631.805V629.595L192.05 330.791L908 631.805Z" fill="#EDEDED"/>
<path d="M908 579.334V577.125L192.05 330.791L908 579.334Z" fill="#EDEDED"/>
<path d="M908 528.521V526.312L192.05 330.791L908 528.521Z" fill="#EDEDED"/>
<path d="M908 478.812V477.155L192.05 330.791L908 478.812Z" fill="#EDEDED"/>
<path d="M908 429.656V427.999L192.05 330.791L908 429.656Z" fill="#EDEDED"/>
<path d="M908 381.604V379.947L192.05 330.791L908 381.604Z" fill="#EDEDED"/>
<path d="M908 333.552V331.895L192.05 330.791L908 333.552Z" fill="#EDEDED"/>
<path d="M192.05 330.791L908 285.501V283.844L192.05 330.791Z" fill="#EDEDED"/>
<path d="M192.05 330.791L908 236.896V235.24L192.05 330.791Z" fill="#EDEDED"/>
<path d="M192.05 330.791L908 188.292V186.635L192.05 330.791Z" fill="#EDEDED"/>
<path d="M192.05 330.79L908 138.583V136.926L192.05 330.79Z" fill="#EDEDED"/>
<path d="M192.05 330.791L908 87.7702V86.1133L192.05 330.791Z" fill="#EDEDED"/>
<path d="M192.05 330.791L908 35.8522V33.6429L192.05 330.791Z" fill="#EDEDED"/>
<path d="M192.05 330.791L908 -18.2748V-19.9318L192.05 330.791Z" fill="#EDEDED"/>
<path d="M192.05 330.791L908 -74.0595V-76.2687L192.05 330.791Z" fill="#EDEDED"/>
<path d="M192.05 330.791L908 -133.157V-135.367L192.05 330.791Z" fill="#EDEDED"/>
<path d="M880.463 -179H877.629L192.05 330.791L880.463 -179Z" fill="#EDEDED"/>
<path d="M803.928 -179H801.498L192.05 330.791L803.928 -179Z" fill="#EDEDED"/>
<path d="M738.731 -179H736.706L192.05 330.791L738.731 -179Z" fill="#EDEDED"/>
<path d="M682.443 -179H680.823L192.05 330.791L682.443 -179Z" fill="#EDEDED"/>
<path d="M633.039 -179H631.42L192.05 330.791L633.039 -179Z" fill="#EDEDED"/>
<path d="M589.305 -179H587.685L192.05 330.791L589.305 -179Z" fill="#EDEDED"/>
<path d="M549.62 -179H548.405L192.05 330.791L549.62 -179Z" fill="#EDEDED"/>
<path d="M513.984 -179H512.364L192.05 330.791L513.984 -179Z" fill="#EDEDED"/>
<path d="M480.778 -179H479.564L192.05 330.791L480.778 -179Z" fill="#EDEDED"/>
<path d="M450.407 -179H449.192L192.05 330.791L450.407 -179Z" fill="#EDEDED"/>
<path d="M421.656 -179H420.846L192.05 330.791L421.656 -179Z" fill="#EDEDED"/>
<path d="M394.929 -179H394.119L192.05 330.791L394.929 -179Z" fill="#EDEDED"/>
<path d="M369.417 -179H368.607L192.05 330.791L369.417 -179Z" fill="#EDEDED"/>
<path d="M345.12 -179H344.31L192.05 330.791L345.12 -179Z" fill="#EDEDED"/>
<path d="M322.038 -179H321.228L192.05 330.791L322.038 -179Z" fill="#EDEDED"/>
<path d="M299.361 -179H298.551L192.05 330.791L299.361 -179Z" fill="#EDEDED"/>
<path d="M277.494 -179H276.684L192.05 330.791L277.494 -179Z" fill="#EDEDED"/>
<path d="M256.032 -179H255.222L192.05 330.791L256.032 -179Z" fill="#EDEDED"/>
<path d="M234.974 -179H234.164L192.05 330.791L234.974 -179Z" fill="#EDEDED"/>
<path d="M214.322 -179H213.512L192.05 330.791L214.322 -179Z" fill="#EDEDED"/>
<path d="M193.669 -179H192.859L192.05 330.791L193.669 -179Z" fill="#EDEDED"/>
<path d="M173.017 -179H172.207L192.049 330.791L173.017 -179Z" fill="#EDEDED"/>
<path d="M152.364 -179H151.555L192.05 330.791L152.364 -179Z" fill="#EDEDED"/>
<path d="M131.307 -179H130.497L192.049 330.791L131.307 -179Z" fill="#EDEDED"/>
<path d="M109.845 -179H109.035L192.05 330.791L109.845 -179Z" fill="#EDEDED"/>
<path d="M87.9774 -179H87.1675L192.049 330.791L87.9774 -179Z" fill="#EDEDED"/>
<path d="M65.7052 -179H64.8953L192.049 330.791L65.7052 -179Z" fill="#EDEDED"/>
<path d="M42.6231 -179H41.8132L192.049 330.791L42.6231 -179Z" fill="#EDEDED"/>
<path d="M18.3262 -179H17.5164L192.05 330.791L18.3262 -179Z" fill="#EDEDED"/>
<path d="M-6.78069 -179H-7.59058L192.049 330.791L-6.78069 -179Z" fill="#EDEDED"/>
<path d="M-33.5073 -179H-34.3171L192.05 330.791L-33.5073 -179Z" fill="#EDEDED"/>
<path d="M-61.4489 -179H-62.6637L192.049 330.791L-61.4489 -179Z" fill="#EDEDED"/>
<path d="M-91.8201 -179H-93.0349L192.049 330.791L-91.8201 -179Z" fill="#EDEDED"/>
<path d="M-124.621 -179H-125.836L192.05 330.791L-124.621 -179Z" fill="#EDEDED"/>
<path d="M-159.852 -179H-161.471L192.049 330.791L-159.852 -179Z" fill="#EDEDED"/>
<path d="M-198.727 -179H-200.346L192.05 330.791L-198.727 -179Z" fill="#EDEDED"/>
<path d="M-242.056 -179H-243.676L192.05 330.791L-242.056 -179Z" fill="#EDEDED"/>
<path d="M-290.65 -179H-292.27L192.049 330.791L-290.65 -179Z" fill="#EDEDED"/>
<path d="M-345.723 -179H-347.748L192.049 330.791L-345.723 -179Z" fill="#EDEDED"/>
<path d="M-409.3 -179H-411.73L192.049 330.791L-409.3 -179Z" fill="#EDEDED"/>
<path d="M-483.811 -179H-486.646L192.05 330.791L-483.811 -179Z" fill="#EDEDED"/>
<path d="M-532 -151.384V-149.175L192.049 330.791L-532 -151.384Z" fill="#EDEDED"/>
<path d="M-532 -91.1811V-88.9718L192.049 330.791L-532 -91.1811Z" fill="#EDEDED"/>
<path d="M-532 -33.7397V-31.5305L192.049 330.791L-532 -33.7397Z" fill="#EDEDED"/>
<path d="M-532 21.4922V23.7015L192.049 330.791L-532 21.4922Z" fill="#EDEDED"/>
<path d="M-532 75.0669V77.2762L192.049 330.791L-532 75.0669Z" fill="#EDEDED"/>
<path d="M-532 126.985V128.642L192.049 330.791L-532 126.985Z" fill="#EDEDED"/>
<path d="M-532 177.798V179.455L192.049 330.791L-532 177.798Z" fill="#EDEDED"/>
<path d="M-532 227.507V229.716L192.049 330.791L-532 227.507Z" fill="#EDEDED"/>
<path d="M-532 277.216V278.873L192.049 330.791L-532 277.216Z" fill="#EDEDED"/>
<path d="M-532 325.82V328.029L192.049 330.791L-532 325.82Z" fill="#EDEDED"/>
<path d="M192.049 330.791L-532 374.976V376.633L192.049 330.791Z" fill="#EDEDED"/>
<path d="M192.049 330.791L-532 424.133V425.79L192.049 330.791Z" fill="#EDEDED"/>
<path d="M192.049 330.791L-532 473.841V475.498L192.049 330.791Z" fill="#EDEDED"/>
<path d="M192.049 330.791L-532 524.655V526.312L192.049 330.791Z" fill="#EDEDED"/>
<path d="M192.049 330.791L-532 576.02V578.23L192.049 330.791Z" fill="#EDEDED"/>
<path d="M192.049 330.791L-532 629.043V631.252L192.049 330.791Z" fill="#EDEDED"/>
<path d="M192.049 330.791L-532 684.275V686.484L192.049 330.791Z" fill="#EDEDED"/>
<path d="M192.049 330.791L-532 741.164V743.373L192.049 330.791Z" fill="#EDEDED"/>
<path d="M-532 797.501V799.71L192.049 330.791L-532 797.501Z" fill="#EDEDED"/>
<path d="M-512.157 845H-508.918L192.05 330.791L-512.157 845Z" fill="#EDEDED"/>
<path d="M-433.597 845H-430.763L192.049 330.791L-433.597 845Z" fill="#EDEDED"/>
<path d="M-366.781 845H-364.756L192.049 330.791L-366.781 845Z" fill="#EDEDED"/>
<path d="M-309.278 845H-307.253L192.049 330.791L-309.278 845Z" fill="#EDEDED"/>
<path d="M-258.659 845H-257.039L192.049 330.791L-258.659 845Z" fill="#EDEDED"/>
<path d="M-213.71 845H-212.495L192.05 330.791L-213.71 845Z" fill="#EDEDED"/>
<path d="M-173.62 845H-172L192.049 330.791L-173.62 845Z" fill="#EDEDED"/>
<path d="M-136.769 845H-135.555L192.049 330.791L-136.769 845Z" fill="#EDEDED"/>
<path d="M-103.159 845H-101.944L192.05 330.791L-103.159 845Z" fill="#EDEDED"/>
<path d="M-71.9775 845H-70.7627L192.049 330.791L-71.9775 845Z" fill="#EDEDED"/>
<path d="M-42.8212 845H-41.6063L192.049 330.791L-42.8212 845Z" fill="#EDEDED"/>
<path d="M-15.2847 845H-14.4748L192.049 330.791L-15.2847 845Z" fill="#EDEDED"/>
<path d="M10.6321 845H11.442L192.049 330.791L10.6321 845Z" fill="#EDEDED"/>
<path d="M35.3341 845H36.144L192.049 330.791L35.3341 845Z" fill="#EDEDED"/>
<path d="M59.2261 845H60.036L192.049 330.791L59.2261 845Z" fill="#EDEDED"/>
<path d="M81.9033 845H82.7132L192.05 330.791L81.9033 845Z" fill="#EDEDED"/>
<path d="M104.176 845H104.985L192.05 330.791L104.176 845Z" fill="#EDEDED"/>
<path d="M126.043 845H126.853L192.049 330.791L126.043 845Z" fill="#EDEDED"/>
<path d="M147.505 845H148.315L192.05 330.791L147.505 845Z" fill="#EDEDED"/>
<path d="M168.562 845H169.372L192.05 330.791L168.562 845Z" fill="#EDEDED"/>
<g opacity="0.3" filter="url(#filter0_f)">
<path d="M45.2575 392.674C42.6759 396.242 38.5439 398.023 32.8614 398.015C27.179 398.008 23.0104 396.228 20.3556 392.674C17.7009 389.099 16.3735 383.703 16.3735 376.487V342.598C16.3735 329.014 21.917 322.221 33.0041 322.221C38.7304 322.221 42.8514 323.947 45.3672 327.398C47.883 330.849 49.1372 335.916 49.1299 342.598V376.487C49.1299 383.725 47.8391 389.121 45.2575 392.674ZM28.7258 385.688C29.0895 386.459 29.6665 387.11 30.3886 387.564C31.1106 388.017 31.9475 388.255 32.8002 388.248C33.6529 388.241 34.4858 387.99 35.2004 387.525C35.915 387.06 36.4814 386.399 36.8326 385.623C37.4761 383.868 37.7979 380.859 37.7979 376.597V342.094C37.9288 339.496 37.5944 336.897 36.8106 334.417C36.5159 333.647 35.9787 332.994 35.28 332.557C34.5814 332.12 33.7594 331.922 32.9382 331.993C32.0981 331.935 31.2605 332.137 30.5385 332.57C29.8166 333.004 29.2451 333.648 28.9013 334.417C28.126 336.033 27.7384 338.592 27.7384 342.094V376.651C27.7384 380.98 28.0676 383.999 28.7258 385.71V385.688Z" fill="#222220"/>
<path d="M64.2905 397.204V323.109H78.3102L88.8414 377.244L98.7144 323.109H112.822V397.204H102.762V369.588L103.179 344.243L93.1965 396.886H84.223L73.8235 344.243L74.2403 369.588V397.204H64.2905Z" fill="#222220"/>
<path d="M128.926 397.204V323.109H145.94C151.696 323.109 155.634 324.857 157.755 328.352C159.876 331.847 160.991 337.06 161.101 343.991V345.515C161.101 352.871 160.055 358.449 157.963 362.251C155.872 366.053 151.992 367.954 146.324 367.954H140.214V397.171L128.926 397.204ZM140.214 358.676H144.086C146.471 358.676 148.021 357.759 148.738 355.923C149.454 354.088 149.82 350.586 149.835 345.417V343.98C149.835 339.593 149.447 336.464 148.672 334.592C148.334 333.698 147.712 332.938 146.902 332.429C146.092 331.921 145.138 331.69 144.185 331.774H140.225L140.214 358.676Z" fill="#222220"/>
<path d="M204.18 304.147H16.3735V314.467H178.664L169.021 397.204H179.892L181.494 381.027H193.451L195.25 397.204H205.781L195.524 314.467H360.743V304.147H204.18ZM182.58 369.95L187.132 324.426H187.297L192.266 369.95H182.58Z" fill="#BC1421"/>
<path d="M233.316 362.383L229.696 362.219V397.204H218.408V323.109H237.057C240.933 323.109 243.825 323.888 245.734 325.445C247.711 327.117 249.046 329.424 249.508 331.971C250.183 335.586 250.484 339.261 250.407 342.938C250.407 347.442 249.928 350.871 248.97 353.225C248.515 354.376 247.798 355.405 246.877 356.231C245.955 357.057 244.854 357.657 243.661 357.985C246.213 358.438 247.994 360.164 249.003 363.162C250.013 366.159 250.517 372.411 250.517 381.916C250.517 391.42 250.656 396.538 250.934 397.27H239.679C239.401 396.707 239.262 387.852 239.262 370.707C239.262 367.424 238.871 365.231 238.088 364.127C237.306 363.023 235.715 362.441 233.316 362.383ZM229.74 353.456H234.249C235.393 353.551 236.531 353.206 237.43 352.491C238.243 351.572 238.746 350.421 238.867 349.2C239.186 346.816 239.322 344.411 239.273 342.006V341.545C239.273 337.531 238.936 334.907 238.264 333.671C237.591 332.435 236.033 331.817 233.59 331.817H229.762L229.74 353.456Z" fill="#222220"/>
<path d="M269.66 397.204V332.87H260.983V323.099H289.241V332.87H280.904V397.193L269.66 397.204Z" fill="#222220"/>
<path d="M300.826 397.204V323.109H312.114V397.204H300.826Z" fill="#222220"/>
<path d="M328.525 397.204V323.109H345.155C350.604 323.109 354.553 324.718 357.003 327.935C359.453 331.152 360.681 335.905 360.689 342.192V375.62C360.689 383.085 359.453 388.569 356.981 392.071C354.509 395.573 350.424 397.314 344.727 397.292L328.525 397.204ZM339.813 388.43H343.521C344.385 388.504 345.254 388.357 346.046 388.004C346.838 387.651 347.528 387.104 348.051 386.412C348.987 385.067 349.459 382.596 349.466 378.998V342.412C349.466 338.566 348.995 335.828 348.051 334.197C347.551 333.376 346.83 332.712 345.971 332.28C345.112 331.847 344.149 331.664 343.192 331.752H339.901L339.813 388.43Z" fill="#222220"/>
<path d="M369.552 413.172L384.647 307.328H405.94L422 413.172H406.971L404.448 394.287H387.357L385.031 413.172H369.552ZM402.758 381.367L395.661 328.209H395.42L388.925 381.367H402.758Z" fill="#222220"/>
<path d="M231.89 439.077H224.87C224.979 438.802 225.045 438.594 225.155 438.397C225.571 437.625 225.786 436.762 225.78 435.885C225.78 432.376 225.78 428.866 225.78 425.357C225.782 424.467 225.567 423.59 225.155 422.801C224.902 422.319 225.023 422.11 225.572 422.11C228.863 422.11 232.154 422.11 235.445 422.11C236.557 422.056 237.665 422.278 238.67 422.757C239.2 423.051 239.666 423.448 240.04 423.926C240.414 424.403 240.687 424.951 240.845 425.536C241.003 426.121 241.041 426.732 240.957 427.333C240.874 427.933 240.67 428.511 240.359 429.031C240.015 429.608 239.55 430.104 238.994 430.482C238.439 430.861 237.808 431.114 237.145 431.224C237.32 431.345 237.463 431.476 237.628 431.564C239.107 432.595 240.315 433.968 241.149 435.567C241.847 436.738 242.728 437.79 243.76 438.682C243.878 438.803 243.987 438.931 244.089 439.066H243.464C242.103 439.066 240.743 439.066 239.383 439.066C238.72 439.103 238.06 438.953 237.478 438.633C236.896 438.313 236.416 437.836 236.092 437.256C235.291 435.995 234.49 434.745 233.635 433.516C233.395 433.143 233.072 432.83 232.691 432.602C232.311 432.374 231.883 432.236 231.441 432.2C231.035 432.2 230.804 432.2 230.837 432.727C230.925 434.098 230.936 435.468 231.068 436.839C231.188 437.412 231.375 437.967 231.627 438.495C231.682 438.649 231.759 438.802 231.846 439.022L231.89 439.077ZM230.837 427.188C230.837 427.912 230.837 428.625 230.837 429.382C230.837 429.656 230.936 429.776 231.221 429.765C231.792 429.765 232.318 429.765 232.932 429.765C233.432 429.797 233.927 429.66 234.341 429.378C234.754 429.096 235.061 428.685 235.214 428.208C235.317 427.789 235.358 427.356 235.335 426.925C235.347 426.409 235.165 425.907 234.826 425.518C234.488 425.128 234.016 424.879 233.503 424.819C232.719 424.75 231.931 424.732 231.144 424.764C231.046 424.764 230.859 425.006 230.848 425.148C230.848 425.85 230.848 426.552 230.848 427.254" fill="#222220"/>
<path d="M269.221 421.65C271.233 421.488 273.241 422.014 274.914 423.141C276.001 423.786 276.925 424.671 277.617 425.728C278.309 426.785 278.751 427.986 278.908 429.239C279.191 430.757 279.056 432.323 278.516 433.771C277.977 435.218 277.054 436.491 275.847 437.453C274.685 438.397 273.331 439.074 271.879 439.438C270.427 439.802 268.913 439.843 267.444 439.559C265.726 439.318 264.1 438.634 262.727 437.574C261.003 436.251 259.866 434.307 259.556 432.156C259.193 430.218 259.493 428.213 260.408 426.466C261.324 424.719 262.801 423.332 264.603 422.527C266.032 421.815 267.63 421.512 269.221 421.65ZM273.609 430.643C273.693 429.431 273.501 428.217 273.05 427.089C272.81 426.373 272.374 425.738 271.793 425.256C271.212 424.773 270.507 424.462 269.759 424.359C269.028 424.253 268.283 424.367 267.617 424.685C266.951 425.003 266.394 425.512 266.018 426.146C265.283 427.282 264.901 428.61 264.921 429.963C264.744 431.69 265.084 433.43 265.897 434.964C266.235 435.572 266.731 436.077 267.333 436.426C267.935 436.775 268.62 436.955 269.315 436.947C270.011 436.94 270.691 436.744 271.285 436.381C271.879 436.019 272.363 435.502 272.688 434.887C273.406 433.594 273.73 432.118 273.62 430.643" fill="#222220"/>
<path d="M224.079 439.077H216.324C216.422 438.495 216.576 437.98 216.62 437.355C216.613 436.53 216.373 435.724 215.929 435.03C215.879 434.969 215.818 434.92 215.748 434.886C215.677 434.852 215.601 434.834 215.523 434.832C213.636 434.832 211.76 434.832 209.873 434.832C209.769 434.851 209.67 434.893 209.584 434.956C209.499 435.018 209.429 435.1 209.38 435.194C209.056 435.78 208.867 436.43 208.827 437.098C208.787 437.766 208.897 438.435 209.149 439.055H204.18C204.18 439.055 204.18 438.934 204.18 438.89C205.115 437.878 205.809 436.667 206.209 435.348C207.208 432.792 208.184 430.226 209.171 427.671C209.557 426.782 209.898 425.874 210.191 424.951C210.338 424.304 210.379 423.637 210.312 422.977C210.312 422.319 210.378 422.099 211.047 422.099H215.786C215.952 422.085 216.119 422.128 216.256 422.222C216.394 422.316 216.496 422.455 216.543 422.615C218.101 426.409 219.659 430.204 221.249 433.977C221.736 435.458 222.418 436.867 223.279 438.166L224.025 439.077H224.079ZM212.462 426.519L210.532 432.003H214.558L212.462 426.519Z" fill="#222220"/>
<path d="M157.755 421.913H163.536C163.691 421.888 163.849 421.919 163.983 422.002C164.116 422.085 164.214 422.213 164.26 422.363C165.299 424.922 166.355 427.481 167.43 430.04C168.418 432.398 169.405 434.756 170.436 437.103C170.701 437.587 171.009 438.046 171.358 438.473L171.676 438.901H164.074C164.198 438.299 164.257 437.685 164.249 437.07C164.127 436.35 163.932 435.644 163.668 434.964C163.619 434.892 163.554 434.832 163.477 434.79C163.401 434.748 163.316 434.725 163.229 434.723C161.327 434.723 159.43 434.723 157.535 434.723C157.445 434.737 157.36 434.773 157.286 434.826C157.211 434.879 157.15 434.949 157.108 435.03C156.753 435.604 156.545 436.256 156.503 436.93C156.461 437.603 156.586 438.277 156.866 438.89H151.941C151.983 438.785 152.038 438.685 152.105 438.594C152.884 437.71 153.474 436.676 153.839 435.556C155.166 432.134 156.449 428.713 157.81 425.302C158.079 424.778 158.22 424.197 158.22 423.607C158.22 423.018 158.079 422.437 157.81 421.913H157.755ZM162.406 431.871L160.267 426.388L158.325 431.871H162.406Z" fill="#222220"/>
<path d="M105.132 438.879C105.332 438.531 105.497 438.163 105.625 437.783C105.872 436.95 106.03 436.093 106.097 435.227C106.152 432.288 106.174 429.349 106.097 426.453C106.221 424.918 105.856 423.382 105.055 422.066C105.351 422.066 105.527 422.066 105.691 422.066H118.46C118.888 422.066 119.02 422.165 119.042 422.626C119.042 423.723 119.228 424.721 119.349 425.916C118.998 425.719 118.735 425.554 118.449 425.412C117.617 425.008 116.698 424.812 115.773 424.841C114.544 424.841 113.315 424.841 112.098 424.841C111.67 424.841 111.549 424.984 111.56 425.39C111.56 426.267 111.56 427.133 111.56 428.011C111.56 428.362 111.681 428.471 112.032 428.471C113.48 428.471 114.917 428.471 116.42 428.471H116.979L117.309 432.288C117.023 432.156 116.881 432.091 116.749 432.014C115.986 431.548 115.109 431.301 114.215 431.301C113.491 431.301 112.767 431.301 112.021 431.301C111.725 431.301 111.593 431.378 111.593 431.696C111.593 433.092 111.593 434.485 111.593 435.874C111.593 436.192 111.714 436.28 112.01 436.28C113.776 436.28 115.542 436.346 117.298 436.28C118.059 436.132 118.797 435.881 119.492 435.534C119.658 435.461 119.819 435.377 119.974 435.282C119.974 435.765 119.974 436.192 119.974 436.609C119.974 437.223 119.832 437.837 119.777 438.451C119.722 439.066 119.514 439.088 119.053 439.088H105.571C105.439 439.088 105.318 439.088 105.132 439.088" fill="#222220"/>
<path d="M290.876 434.35C291.655 434.898 292.335 435.447 293.07 435.874C294.169 436.534 295.443 436.844 296.723 436.763C297.239 436.781 297.742 436.595 298.124 436.247C298.505 435.898 298.735 435.414 298.763 434.898C298.766 434.61 298.681 434.329 298.521 434.09C298.36 433.851 298.131 433.666 297.864 433.56C297.052 433.176 296.185 432.902 295.363 432.463C294.337 432.018 293.343 431.501 292.39 430.917C291.811 430.539 291.342 430.016 291.028 429.4C290.715 428.785 290.567 428.098 290.602 427.408C290.549 426.568 290.705 425.728 291.055 424.962C291.405 424.197 291.939 423.53 292.609 423.021C293.75 422.15 295.135 421.659 296.569 421.617C298.433 421.503 300.301 421.776 302.054 422.417C302.207 422.452 302.342 422.541 302.433 422.669C302.524 422.796 302.565 422.953 302.548 423.108C302.548 424.139 302.548 425.181 302.548 426.267C301.967 425.861 301.451 425.488 300.913 425.17C299.683 424.387 298.206 424.086 296.767 424.326C295.736 424.501 295.099 425.28 295.385 426.146C295.536 426.567 295.837 426.919 296.229 427.133C297.217 427.605 298.292 427.923 299.29 428.373C300.245 428.775 301.16 429.267 302.021 429.842C302.561 430.246 302.999 430.769 303.304 431.37C303.608 431.971 303.77 432.634 303.777 433.308C303.871 434.715 303.429 436.105 302.539 437.2C301.65 438.294 300.379 439.012 298.983 439.208C296.434 439.72 293.792 439.476 291.381 438.506C291.186 438.453 291.016 438.332 290.901 438.166C290.787 437.999 290.735 437.797 290.755 437.596C290.755 436.642 290.755 435.677 290.755 434.723C290.755 434.58 290.755 434.438 290.755 434.251" fill="#222220"/>
<path d="M74.8655 436.269C74.8655 435.764 74.8655 435.26 74.8655 434.755C74.8882 434.616 74.9287 434.479 74.9862 434.35C75.1224 434.388 75.2547 434.439 75.3811 434.503C76.138 434.997 76.8511 435.6 77.6519 435.973C78.6697 436.48 79.8137 436.678 80.9429 436.543C81.2007 436.543 81.4557 436.489 81.691 436.383C81.9262 436.278 82.1363 436.124 82.3074 435.931C82.4785 435.738 82.6067 435.511 82.6835 435.265C82.7603 435.019 82.784 434.759 82.7529 434.503C82.7029 434.227 82.5799 433.97 82.3966 433.758C82.2133 433.546 81.9765 433.386 81.7108 433.297C80.6138 432.814 79.418 432.376 78.2772 431.893C77.2568 431.49 76.3415 430.86 75.6005 430.051C75.011 429.445 74.6772 428.636 74.668 427.791C74.5419 426.622 74.7673 425.443 75.3153 424.402C75.7228 423.754 76.256 423.194 76.8833 422.756C77.5107 422.317 78.2196 422.008 78.9683 421.847C80.5467 421.513 82.1752 421.491 83.7622 421.781C84.5479 421.939 85.3243 422.141 86.0878 422.384C86.2279 422.411 86.352 422.491 86.4339 422.608C86.5159 422.725 86.5491 422.869 86.5266 423.01C86.5266 423.766 86.5266 424.523 86.5266 425.28C86.5215 425.488 86.4395 425.688 86.2962 425.839C86.2304 425.894 85.9342 425.773 85.7916 425.664C84.5005 424.62 82.8626 424.103 81.2062 424.216C80.2079 424.293 79.3851 424.819 79.4071 425.795C79.3974 426.058 79.4664 426.317 79.6052 426.54C79.744 426.762 79.9462 426.939 80.1859 427.046C81.1952 427.495 82.2373 427.868 83.2575 428.274C84.5584 428.682 85.738 429.405 86.6912 430.38C87.3764 431.091 87.7681 432.035 87.7882 433.023C87.9115 434.092 87.7487 435.174 87.3164 436.159C86.9276 436.857 86.4 437.468 85.7661 437.955C85.1322 438.442 84.4055 438.794 83.6305 438.989C81.6746 439.48 79.6307 439.507 77.6628 439.066C76.9279 438.923 76.2258 438.649 75.4688 438.451C75.3786 438.437 75.2921 438.404 75.2144 438.356C75.1367 438.308 75.0694 438.245 75.0164 438.17C74.9633 438.096 74.9256 438.011 74.9053 437.922C74.8851 437.833 74.8827 437.741 74.8984 437.651C74.8984 437.201 74.8984 436.741 74.8984 436.291" fill="#222220"/>
<path d="M258.087 422.132C258.163 423.229 258.251 424.205 258.295 425.225C258.305 425.32 258.295 425.417 258.264 425.507C258.234 425.598 258.185 425.681 258.119 425.752C258.01 425.817 257.746 425.752 257.593 425.642C256.641 425.1 255.548 424.855 254.455 424.94C253.26 424.94 253.26 424.94 253.26 426.113C253.26 428.899 253.26 431.685 253.26 434.47C253.157 435.966 253.457 437.461 254.126 438.802C254.165 438.895 254.194 438.99 254.214 439.088H246.93C247.007 438.912 247.062 438.748 247.138 438.594C247.658 437.627 247.922 436.544 247.906 435.447C247.906 432.156 247.906 428.866 247.906 425.576C247.906 425.379 247.906 425.181 247.906 424.94C246.338 424.94 244.824 424.786 243.518 425.719C243.156 425.971 242.882 425.795 242.904 425.313C242.97 424.216 243.069 423.207 243.167 422.132H258.087Z" fill="#222220"/>
<path d="M99.6139 438.89H92.4505C92.6636 438.452 92.8504 438.001 93.01 437.541C93.1562 437.029 93.2518 436.504 93.2952 435.973C93.2952 435.359 93.2952 434.734 93.2952 434.108C93.3318 431.184 93.372 428.285 93.4159 425.411C93.4159 424.742 93.4159 424.742 92.7357 424.753C91.4776 424.62 90.2102 424.901 89.1266 425.554C88.8304 425.773 88.5781 425.554 88.5781 425.236C88.5781 424.348 88.5781 423.459 88.6878 422.571C88.6878 422.209 88.9401 422.023 89.3351 422.023H102.993C103.11 422.015 103.227 422.015 103.344 422.023C103.442 423.053 103.552 424.073 103.618 425.082C103.622 425.171 103.607 425.259 103.573 425.341C103.539 425.422 103.487 425.495 103.421 425.554C103.339 425.576 103.253 425.58 103.169 425.565C103.086 425.549 103.007 425.516 102.938 425.466C101.745 424.795 100.368 424.526 99.0106 424.699C98.9118 424.699 98.7473 424.929 98.7363 425.049C98.7363 425.653 98.7363 426.256 98.7363 426.859C98.7363 429.524 98.7363 432.2 98.7363 434.865C98.6606 436.04 98.8872 437.214 99.3945 438.276C99.4709 438.454 99.5332 438.637 99.581 438.824" fill="#222220"/>
<path d="M135.771 434.887L135.431 438.879H121.499C121.62 438.583 121.708 438.331 121.817 438.112C122.166 437.402 122.342 436.621 122.333 435.83C122.333 432.354 122.333 428.877 122.333 425.401C122.366 424.391 122.127 423.391 121.642 422.505C121.574 422.363 121.515 422.216 121.466 422.066C121.653 422.066 121.817 422.066 121.971 422.066H128.114C128.717 422.066 128.772 422.066 128.52 422.648C128.022 423.787 127.786 425.024 127.829 426.267C127.829 429.327 127.829 432.376 127.829 435.436C127.829 436.181 127.829 436.181 128.586 436.181C129.88 436.181 131.175 436.181 132.469 436.181C133.36 436.145 134.224 435.868 134.97 435.381L135.749 434.92" fill="#222220"/>
<path d="M144.602 422.099C144.001 423.094 143.668 424.228 143.636 425.39C143.636 425.62 143.636 425.861 143.636 426.091C143.636 429.283 143.636 432.474 143.636 435.666C143.636 436.061 143.757 436.192 144.152 436.181C145.545 436.181 146.938 436.181 148.332 436.181C149.19 436.145 150.023 435.88 150.745 435.414L151.458 434.986C151.484 436.302 151.411 437.618 151.239 438.923H137.241C137.456 438.468 137.639 437.999 137.789 437.519C137.998 436.804 138.126 436.069 138.173 435.326C138.173 432.288 138.173 429.25 138.173 426.201C138.216 424.971 137.964 423.75 137.438 422.637C137.274 422.319 137.274 422.077 137.735 422.077H144.24C144.358 422.092 144.475 422.114 144.591 422.143" fill="#222220"/>
<path d="M288.078 422.099C287.804 422.988 287.541 423.799 287.321 424.611C287.256 424.973 287.238 425.341 287.267 425.708C287.267 428.998 287.267 432.288 287.267 435.578C287.257 436.179 287.316 436.779 287.442 437.366C287.621 437.94 287.841 438.501 288.1 439.044C287.976 439.052 287.851 439.052 287.727 439.044H281.376C280.86 439.044 280.805 438.978 281.058 438.539C281.663 437.281 281.921 435.884 281.803 434.492C281.803 431.568 281.803 428.643 281.803 425.719C281.807 424.813 281.636 423.916 281.299 423.076C281.047 422.461 281.299 422.089 282.023 422.089H288.078" fill="#222220"/>
<path d="M188.054 410.781L186.518 426.782L180.88 423.141L184.555 428.822L175.055 430.347L184.555 431.871L180.88 437.563L186.518 433.922L188.054 450L189.59 433.9L195.228 437.541L191.553 431.86L201.042 430.336L191.553 428.811L195.228 423.119L189.59 426.761L188.054 410.781Z" fill="#BC1421"/>
<path d="M99.8113 293.18V218.877H113.875L124.428 273.165L134.301 218.877H148.452V293.18H138.36V265.455L138.777 240.044L128.838 292.873H119.842L109.41 240.099L109.827 265.51V293.202L99.8113 293.18Z" fill="#030608"/>
<path d="M164.03 293.18V218.877H188.943V228.627H175.34V250.244H188.263V259.785H175.351V283.43H189.458V293.18H164.03Z" fill="#030608"/>
<path d="M201.339 272.277V265.696H212.068V273.132C212.068 277.27 212.433 280.177 213.165 281.851C213.467 282.642 214.017 283.313 214.733 283.766C215.449 284.219 216.291 284.428 217.136 284.362C219.074 284.362 220.361 283.672 220.997 282.29C221.758 280.123 222.082 277.827 221.951 275.534C222.016 272.717 221.439 269.923 220.262 267.363C218.866 264.671 217.056 262.213 214.898 260.081L209.413 254.422C207.009 251.971 204.992 249.168 203.434 246.109C201.962 242.999 201.233 239.59 201.306 236.151C201.306 230.016 202.487 225.458 204.849 222.475C207.211 219.492 211.278 218 217.048 218C222.818 218 226.723 219.736 228.764 223.209C230.804 226.682 231.824 231.757 231.824 238.432V243.038H221.392V237.708C221.524 235.093 221.208 232.474 220.46 229.965C220.206 229.237 219.719 228.612 219.075 228.188C218.43 227.763 217.664 227.563 216.894 227.618C216.161 227.556 215.425 227.688 214.759 228C214.093 228.311 213.52 228.793 213.099 229.395C212.217 231.023 211.813 232.867 211.936 234.714C211.846 236.67 212.254 238.617 213.121 240.373C214.335 242.33 215.767 244.144 217.388 245.78L223.509 252.36C226.341 255.337 228.685 258.742 230.453 262.45C232.037 265.949 232.838 269.752 232.801 273.593C232.801 280.546 231.631 285.664 229.29 288.947C226.95 292.23 222.847 293.904 216.982 293.97C211.131 293.97 207.065 292.12 204.783 288.42C202.502 284.721 201.353 279.34 201.339 272.277Z" fill="#030608"/>
<path d="M241.983 293.18L252.58 218.877H267.532L278.809 293.18H268.256L266.479 279.921H254.488L252.887 293.18H241.983ZM265.294 270.851L260.314 233.562H260.149L255.585 270.851H265.294Z" fill="#030608"/>
</g>
<defs>
<filter id="filter0_f" x="-57" y="208" width="489" height="252" filterUnits="userSpaceOnUse" color-interpolation-filters="sRGB">
<feFlood flood-opacity="0" result="BackgroundImageFix"/>
<feBlend mode="normal" in="SourceGraphic" in2="BackgroundImageFix" result="shape"/>
<feGaussianBlur stdDeviation="5" result="effect1_foregroundBlur"/>
</filter>
</defs>
</svg>
