<svg width="23" height="26" viewBox="0 0 23 26" fill="none" xmlns="http://www.w3.org/2000/svg">
<path d="M18.75 18.2941C17.8 18.2941 16.95 18.669 16.3 19.2565L7.3875 14.0696C7.45 13.7821 7.5 13.4946 7.5 13.1947C7.5 12.8947 7.45 12.6073 7.3875 12.3198L16.2 7.1829C16.875 7.80782 17.7625 8.19528 18.75 8.19528C20.825 8.19528 22.5 6.52048 22.5 4.44572C22.5 2.37097 20.825 0.696167 18.75 0.696167C16.675 0.696167 15 2.37097 15 4.44572C15 4.74569 15.05 5.03315 15.1125 5.32062L6.3 10.4575C5.625 9.83258 4.7375 9.44513 3.75 9.44513C1.675 9.44513 0 11.1199 0 13.1947C0 15.2694 1.675 16.9442 3.75 16.9442C4.7375 16.9442 5.625 16.5568 6.3 15.9319L15.2 21.1312C15.1375 21.3937 15.1 21.6687 15.1 21.9436C15.1 23.9559 16.7375 25.5932 18.75 25.5932C20.7625 25.5932 22.4 23.9559 22.4 21.9436C22.4 19.9314 20.7625 18.2941 18.75 18.2941Z" fill="#BC1421"/>
</svg>
