<svg width="292" height="50" viewBox="0 0 292 50" fill="none" xmlns="http://www.w3.org/2000/svg">
<path d="M200.14 36.0335H191.201C191.341 35.7542 191.481 35.4749 191.62 35.1955C192.179 34.2179 192.458 33.1006 192.458 31.9832C192.458 27.514 192.458 23.0447 192.458 18.5754C192.458 17.4581 192.179 16.3408 191.62 15.3631C191.341 14.8045 191.481 14.5251 192.179 14.5251C196.369 14.5251 200.559 14.5251 204.749 14.5251C206.145 14.5251 207.542 14.6648 208.799 15.3631C211.592 16.8994 212.57 20.3911 210.894 23.324C210.056 25 208.52 25.6983 206.844 26.1173C207.123 26.257 207.263 26.3967 207.402 26.5363C209.497 27.7933 210.615 29.7486 211.872 31.7039C212.849 33.2402 213.827 34.4972 215.224 35.6145C215.363 35.7542 215.503 35.8939 215.643 36.0335C215.224 36.0335 215.084 36.0335 214.805 36.0335C213.129 36.0335 211.313 36.0335 209.637 36.0335C207.821 36.0335 206.425 35.1955 205.447 33.7989C204.469 32.2626 203.352 30.5866 202.374 29.0503C201.676 28.0726 200.838 27.514 199.581 27.3743C199.022 27.3743 198.743 27.3743 198.883 28.0726C199.022 29.7486 199.022 31.5643 199.162 33.2402C199.302 33.9386 199.581 34.6369 199.86 35.3352C200 35.6145 200 35.7542 200.14 36.0335ZM198.883 20.9497C198.883 21.9274 198.883 22.7654 198.883 23.743C198.883 24.162 199.022 24.3017 199.302 24.162C200 24.162 200.698 24.162 201.536 24.162C202.933 24.162 204.05 23.6034 204.469 22.2067C204.609 21.6481 204.609 21.0894 204.609 20.5307C204.609 19.1341 203.631 18.0168 202.235 17.8771C201.257 17.7374 200.279 17.7374 199.302 17.7374C199.162 17.7374 198.883 18.0168 198.883 18.1564C198.883 19.1341 198.883 20.1117 198.883 20.9497Z" fill="black"/>
<path d="M247.765 13.8268C250.419 13.5475 252.793 14.3855 255.028 15.7821C257.821 17.5978 259.637 20.1118 260.056 23.6034C260.614 27.7933 259.497 31.4246 256.145 34.0782C253.073 36.5922 249.441 37.4302 245.391 36.7319C243.156 36.4525 241.201 35.6145 239.385 34.2179C237.151 32.4023 235.754 30.1676 235.335 27.3743C234.497 22.0671 237.011 17.4581 241.76 15.0838C243.715 14.1062 245.67 13.6872 247.765 13.8268ZM253.212 25.2794C253.212 23.743 253.073 22.2067 252.514 20.8101C251.676 18.9944 250.419 17.5978 248.324 17.3185C246.229 17.0391 244.693 17.8771 243.575 19.5531C242.598 20.9497 242.179 22.6257 242.179 24.4414C242.179 26.676 242.179 28.9106 243.436 30.8659C244.413 32.5419 245.95 33.3799 247.905 33.3799C249.721 33.3799 251.117 32.4023 252.095 30.7263C253.073 29.0503 253.352 27.2347 253.212 25.2794Z" fill="black"/>
<path d="M190.223 36.0335H180.307C180.447 35.3352 180.587 34.6368 180.726 33.7988C180.866 32.6815 180.307 31.7039 179.888 30.8659C179.749 30.7262 179.609 30.5866 179.33 30.5866C176.955 30.5866 174.581 30.5866 172.207 30.5866C171.927 30.5866 171.648 30.8659 171.648 31.0056C170.95 32.5419 170.531 34.2178 171.369 35.8938H165.084V35.7542C166.341 34.4972 167.039 32.8212 167.737 31.2849C168.994 28.0726 170.251 24.7206 171.508 21.5083C171.927 20.391 172.486 19.2737 172.765 18.0167C173.045 17.1787 173.045 16.3407 172.905 15.5028C172.905 14.6648 173.045 14.3854 173.883 14.3854C175.838 14.3854 177.933 14.3854 179.888 14.3854C180.447 14.3854 180.726 14.5251 180.866 15.0838C182.821 19.972 184.777 24.7206 186.872 29.6089C187.57 31.4245 188.268 33.3799 189.385 34.9162C189.525 35.1955 189.804 35.6145 190.223 36.0335ZM175.559 20.1117C174.721 22.3463 173.883 24.7206 173.045 27.0949H178.212C177.235 24.581 176.397 22.3463 175.559 20.1117Z" fill="black"/>
<path d="M105.866 14.1061C106.564 14.1061 107.123 14.1061 107.682 14.1061C109.497 14.1061 111.452 14.1061 113.268 14.1061C113.687 14.1061 113.966 14.2458 114.246 14.6648C115.503 17.8771 116.899 21.229 118.296 24.4413C119.553 27.514 120.81 30.4469 122.067 33.3799C122.346 34.0782 122.905 34.4972 123.184 35.1955C123.324 35.3352 123.464 35.4749 123.603 35.7542H113.966C114.106 34.9162 114.246 34.2179 114.246 33.3799C114.106 32.4022 113.827 31.5642 113.547 30.7263C113.547 30.5866 113.128 30.4469 112.989 30.4469C110.615 30.4469 108.101 30.4469 105.726 30.4469C105.587 30.4469 105.307 30.5866 105.168 30.8659C104.469 32.4022 103.911 34.0782 104.888 35.7542H98.6033C98.743 35.6145 98.743 35.4749 98.743 35.3352C99.8603 34.2179 100.419 32.8212 100.978 31.4246C102.654 27.095 104.33 22.7654 106.006 18.4357C106.425 17.0391 106.564 15.6425 105.866 14.1061ZM111.592 26.8156C110.615 24.4413 109.777 22.2067 108.939 19.8324C108.101 22.067 107.263 24.4413 106.425 26.8156H111.592Z" fill="black"/>
<path d="M38.8268 35.7542C39.1062 35.1955 39.3855 34.7765 39.3855 34.3575C39.6648 33.2402 39.9441 32.2625 39.9441 31.1452C40.0838 27.3743 40.0838 23.6033 39.9441 19.972C39.9441 18.1564 39.8045 16.2011 38.6872 14.3854C39.1062 14.3854 39.2458 14.3854 39.5252 14.3854C44.9721 14.3854 50.2793 14.3854 55.7263 14.3854C56.2849 14.3854 56.4246 14.5251 56.4246 15.0838C56.4246 16.4804 56.7039 17.7374 56.8436 19.2737C56.4246 18.9944 56.0056 18.8547 55.7263 18.5754C54.609 18.0167 53.4916 17.8771 52.3743 17.8771C50.838 17.8771 49.3017 17.8771 47.6257 17.8771C47.067 17.8771 46.9274 18.0167 46.9274 18.5754C46.9274 19.6927 46.9274 20.81 46.9274 21.9273C46.9274 22.3463 47.0671 22.486 47.486 22.486C49.3017 22.486 51.1173 22.486 53.0726 22.486C53.352 22.486 53.4916 22.486 53.771 22.486C53.9106 24.0223 54.0503 25.5586 54.19 27.3743C53.771 27.2346 53.6313 27.0949 53.4916 27.0949C52.514 26.5363 51.3967 26.1173 50.2793 26.2569C49.3017 26.2569 48.4637 26.2569 47.486 26.2569C47.0671 26.2569 46.9274 26.3966 46.9274 26.8156C46.9274 28.6312 46.9274 30.3072 46.9274 32.1229C46.9274 32.5419 47.0671 32.6815 47.486 32.6815C49.7207 32.6815 51.9553 32.8212 54.19 32.6815C55.1676 32.6815 56.0056 32.1229 56.9833 31.7039C57.1229 31.7039 57.4023 31.5642 57.5419 31.4245C57.5419 31.9832 57.5419 32.5419 57.5419 33.1005C57.5419 33.9385 57.4022 34.6368 57.2626 35.4748C57.2626 36.0335 56.9833 36.3128 56.2849 36.3128C50.5587 36.3128 44.9721 36.3128 39.2458 36.3128C39.2458 35.8938 39.1062 35.7542 38.8268 35.7542Z" fill="black"/>
<path d="M275.279 30.0279C276.257 30.7262 277.095 31.4245 278.073 31.9832C279.469 32.8212 281.006 33.2402 282.682 33.1005C284.218 32.9609 285.335 31.9832 285.335 30.7262C285.335 29.8882 284.916 29.3296 284.218 29.0502C283.24 28.4916 282.123 28.2123 281.006 27.6536C279.749 27.0949 278.352 26.3966 277.235 25.6983C275.698 24.7206 275 23.1843 275 21.229C275 18.9944 275.698 17.0391 277.514 15.6424C279.05 14.5251 280.726 13.9664 282.542 13.8268C284.916 13.6871 287.291 13.9664 289.525 14.8044C289.944 14.9441 290.223 15.2234 290.223 15.6424C290.223 16.8994 290.223 18.2961 290.223 19.6927C289.525 19.134 288.827 18.715 288.129 18.2961C286.453 17.3184 284.777 16.8994 282.821 17.1787C281.564 17.4581 280.726 18.4357 281.006 19.553C281.145 20.1117 281.564 20.5307 282.123 20.81C283.38 21.3687 284.777 21.7877 286.034 22.3463C287.291 22.905 288.408 23.4636 289.525 24.162C290.922 25.1396 291.62 26.8156 291.76 28.6312C292.039 32.6815 289.106 35.4748 285.615 36.1731C282.263 36.8715 279.05 36.4525 275.978 35.3352C275.419 35.1955 275.14 34.7765 275.14 34.2178C275.14 32.9609 275.14 31.8435 275.14 30.5866C275.279 30.4469 275.279 30.3072 275.279 30.0279Z" fill="black"/>
<path d="M0.27933 32.4023C0.27933 31.704 0.27933 31.1453 0.27933 30.447C0.27933 30.3073 0.418994 30.1676 0.418994 29.8883C0.558659 29.8883 0.837989 30.028 0.977654 30.028C1.95531 30.5866 2.7933 31.4246 3.91061 31.8436C5.1676 32.5419 6.56425 32.6816 8.10056 32.5419C9.63687 32.4023 10.6145 31.285 10.3352 29.8883C10.1955 29.0503 9.63687 28.6313 9.07821 28.352C7.68156 27.7933 6.14525 27.2347 4.7486 26.5364C3.49162 25.9777 2.23464 25.2794 1.39665 24.162C0.418994 23.7431 0 22.7654 0 21.6481C0 20.1118 0 18.7151 0.837989 17.3185C1.95531 15.5028 3.49162 14.5252 5.44693 14.1062C7.5419 13.5475 9.49721 13.6872 11.5922 13.9665C12.5698 14.1062 13.5475 14.5252 14.5251 14.6648C14.9441 14.8045 15.0838 15.0838 15.0838 15.5028C15.0838 16.4805 15.0838 17.4581 15.0838 18.4358C15.0838 18.7151 14.9441 18.9945 14.8045 19.1341C14.6648 19.2738 14.3855 18.9945 14.1061 18.8548C12.4302 17.5978 10.4749 16.8995 8.24022 17.0391C6.98324 17.1788 5.86592 17.7375 6.00559 18.9945C6.00559 19.6928 6.28492 20.2514 6.98324 20.5308C8.24022 21.0894 9.63687 21.5084 10.8939 22.0671C12.5698 22.7654 14.1061 23.3241 15.2235 24.7207C16.0615 25.6984 16.6201 26.8157 16.6201 28.0727C16.6201 29.4693 16.7598 30.866 16.0615 32.1229C14.9441 33.9386 13.4078 35.1956 11.3129 35.7542C8.79888 36.4526 6.28492 36.3129 3.77095 35.8939C2.7933 35.7542 1.95531 35.3352 0.977654 35.0559C0.418994 34.9162 0.27933 34.6369 0.27933 34.0783C0.27933 33.6593 0.27933 33.1006 0.27933 32.4023Z" fill="black"/>
<path d="M233.52 14.5251C233.659 15.9218 233.659 17.1788 233.799 18.4358C233.799 18.7151 233.799 18.9944 233.52 19.1341C233.38 19.2738 233.101 19.1341 232.821 18.9944C231.564 18.1564 230.168 18.1564 228.771 18.1564C227.235 18.1564 227.235 18.1564 227.235 19.6927C227.235 23.1844 227.235 26.8157 227.235 30.3073C227.235 32.2626 227.374 34.0782 228.352 35.7542C228.352 35.8939 228.352 35.8939 228.492 36.1732H219.274C219.413 35.8939 219.413 35.7542 219.553 35.6145C220.251 34.3575 220.531 33.1006 220.531 31.5643C220.531 27.3743 220.531 23.1844 220.531 18.9944C220.531 18.7151 220.531 18.4358 220.531 18.1564C218.575 18.1564 216.62 18.0168 214.944 19.1341C214.525 19.4134 214.106 19.2738 214.106 18.5754C214.246 17.1788 214.385 15.9218 214.385 14.5251H233.52Z" fill="black"/>
<path d="M31.7039 35.7542H22.6257C22.9051 35.1955 23.1844 34.6368 23.3241 34.0782C23.4637 33.3799 23.6034 32.6815 23.743 32.1229C23.743 31.2849 23.743 30.5866 23.743 29.7486C23.743 26.1173 23.8827 22.3463 23.8827 18.715C23.8827 17.8771 23.8827 17.8771 23.0447 17.8771C21.5084 17.8771 19.8324 17.8771 18.4358 18.8547C18.0168 19.134 17.7375 18.8547 17.7375 18.4357C17.7375 17.3184 17.7375 16.2011 17.8771 15.0838C17.8771 14.6648 18.1565 14.3854 18.7151 14.3854C24.4414 14.3854 30.3073 14.3854 36.0335 14.3854C36.1732 14.3854 36.3129 14.3854 36.4525 14.3854C36.5922 15.6424 36.7319 17.0391 36.8715 18.2961C36.8715 18.4357 36.7319 18.8547 36.5922 18.8547C36.4525 18.9944 36.1732 18.8547 36.0335 18.715C34.4972 17.5977 32.8213 17.7374 31.0056 17.7374C30.866 17.7374 30.7263 18.0167 30.7263 18.1564C30.7263 18.8547 30.7263 19.6927 30.7263 20.5307C30.7263 23.8826 30.7263 27.3743 30.7263 30.7262C30.7263 32.2625 30.866 33.6592 31.5643 35.0558C31.5643 35.3352 31.7039 35.4748 31.7039 35.7542Z" fill="black"/>
<path d="M77.7933 30.7262C77.6537 32.5419 77.514 34.2178 77.3743 35.7542H59.6369C59.7766 35.3352 59.9162 35.0558 60.0559 34.7765C60.4749 33.7988 60.7542 32.9609 60.7542 31.8435C60.7542 27.3743 60.7542 23.0447 60.7542 18.5754C60.7542 17.3184 60.4749 16.0614 59.9162 14.9441C59.7766 14.8044 59.7766 14.6648 59.6369 14.3854C59.9162 14.3854 60.0559 14.3854 60.3352 14.3854C62.9889 14.3854 65.5028 14.3854 68.1565 14.3854C68.9944 14.3854 68.9944 14.3854 68.7151 15.0838C68.0168 16.4804 67.8771 18.1564 67.8771 19.6927C67.8771 23.6033 67.8771 27.5139 67.8771 31.4245C67.8771 32.4022 67.8771 32.4022 68.8548 32.4022C70.5308 32.4022 72.2067 32.4022 73.743 32.4022C74.8604 32.4022 75.9777 31.9832 76.9553 31.4245C77.095 31.1452 77.3743 31.0055 77.7933 30.7262Z" fill="black"/>
<path d="M89.1061 14.3854C88.2681 15.7821 87.9888 17.1787 87.8491 18.5754C87.8491 18.8547 87.8491 19.134 87.8491 19.4134C87.8491 23.4636 87.8491 27.5139 87.8491 31.5642C87.8491 32.1229 87.9888 32.2625 88.5475 32.2625C90.3631 32.2625 92.0391 32.2625 93.8547 32.2625C94.972 32.2625 95.9497 31.8435 96.9273 31.2849C97.2067 31.1452 97.486 31.0055 97.7653 30.7262C98.0447 32.4022 97.486 34.0782 97.486 35.7542H79.7486C80.0279 35.1955 80.3072 34.6368 80.4469 33.9385C80.7262 32.9609 80.8659 32.1229 80.8659 31.1452C80.8659 27.2346 80.8659 23.4636 80.8659 19.553C80.8659 18.0167 80.5866 16.4804 79.8882 15.0838C79.7486 14.6648 79.6089 14.3854 80.3072 14.3854C83.1005 14.3854 85.8938 14.3854 88.5475 14.3854C88.6871 14.3854 88.8268 14.3854 89.1061 14.3854Z" fill="black"/>
<path d="M271.788 14.3855C271.508 15.5028 271.089 16.4805 270.81 17.5978C270.67 18.0168 270.67 18.4358 270.67 18.9945C270.67 23.1844 270.67 27.3743 270.67 31.5643C270.67 32.2626 270.67 33.1006 270.95 33.7989C271.089 34.4972 271.508 35.1956 271.788 35.8939C271.648 35.8939 271.508 35.8939 271.369 35.8939C268.715 35.8939 265.922 35.8939 263.268 35.8939C262.57 35.8939 262.57 35.7542 262.849 35.1956C263.827 33.5196 263.827 31.8436 263.827 30.028C263.827 26.257 263.827 22.4861 263.827 18.8548C263.827 17.7375 263.687 16.6202 263.129 15.5028C262.849 14.6648 263.129 14.2458 264.106 14.2458C266.201 14.2458 268.296 14.2458 270.391 14.2458C270.81 14.3855 271.229 14.3855 271.788 14.3855Z" fill="black"/>
<path d="M144.413 0L142.458 20.3911L135.196 15.7821L139.944 23.0447L127.793 24.8603L139.944 26.8156L135.196 34.0782L142.458 29.4693L144.413 50L146.369 29.4693L153.492 34.0782L148.883 26.8156L160.894 24.8603L148.883 22.905L153.492 15.7821L146.369 20.3911L144.413 0Z" fill="#BA041E"/>
</svg>
